<?xml version="1.0" encoding="UTF-8" standalone="no"?>
<svg
   xmlns:lucid="lucid"
   xmlns:dc="http://purl.org/dc/elements/1.1/"
   xmlns:cc="http://creativecommons.org/ns#"
   xmlns:rdf="http://www.w3.org/1999/02/22-rdf-syntax-ns#"
   xmlns:svg="http://www.w3.org/2000/svg"
   xmlns="http://www.w3.org/2000/svg"
   xmlns:xlink="http://www.w3.org/1999/xlink"
   version="1.1"
   id="svg4564"
   height="629"
   width="717">
  <metadata
     id="metadata4936">
    <rdf:RDF>
      <cc:Work
         rdf:about="">
        <dc:format>image/svg+xml</dc:format>
        <dc:type
           rdf:resource="http://purl.org/dc/dcmitype/StillImage" />
        <dc:title></dc:title>
      </cc:Work>
    </rdf:RDF>
  </metadata>
  <defs
     id="defs4934">
    <linearGradient
       id="linearGradient9474">
      <stop
         id="stop9476"
         offset="0"
         style="stop-color:#586e75;stop-opacity:1;" />
      <stop
         id="stop9478"
         offset="1"
         style="stop-color:#586e75;stop-opacity:0;" />
    </linearGradient>
    <linearGradient
       id="Start">
      <stop
         style="stop-color:#586e75;stop-opacity:1"
         offset="0"
         id="stop9442" />
      <stop
         id="stop9452"
         offset="0.5"
         style="stop-color:#ff6600;stop-opacity:1" />
      <stop
         style="stop-color:#586e75;stop-opacity:1"
         offset="1"
         id="stop9444" />
    </linearGradient>
    <linearGradient
       gradientUnits="userSpaceOnUse"
       y2="98.603836"
       x2="316.61801"
       y1="98.603836"
       x1="155.40372"
       id="linearGradient9450"
       xlink:href="#Start" />
    <linearGradient
       gradientUnits="userSpaceOnUse"
       y2="62.43"
       x2="402.1"
       y1="62.43"
       x1="354.12024"
       id="linearGradient9480"
       xlink:href="#linearGradient9474" />
  </defs>
  <g
     style="display:inline;opacity:1"
     id="layer5">
    <path
       style="fill:#002b36;stroke:#073642;stroke-width:2"
       id="path4568"
       d="m 316,75 c 0,-8.28 6.72,-15 15,-15 l 450,0 c 8.28,0 15,6.72 15,15 l 0,570 c 0,8.28 -6.72,15 -15,15 l -450,0 c -8.28,0 -15,-6.72 -15,-15 z"
       transform="translate(-80,-32)" />
  </g>
  <g
     style="display:inline"
     id="layer9">
    <path
       style="fill:#073642;stroke:#000000;stroke-width:2;stroke-opacity:0"
       id="path4612"
       d="m 412,215 c 0,-8.28 6.72,-15 15,-15 l 258,0 c 8.28,0 15,6.72 15,15 l 0,250 c 0,8.28 -6.72,15 -15,15 l -258,0 c -8.28,0 -15,-6.72 -15,-15 z"
       transform="translate(-80,-32)" />
  </g>
  <g
     style="display:inline"
     id="layer23">
    <g
       transform="translate(-80,-32)"
       id="g4566"
       lucid:page-tab-id="0_0">
      <path
         style="fill:#073642"
         id="path4658"
         d="m 412,515 c 0,-8.28 6.72,-15 15,-15 l 258,0 c 8.28,0 15,6.72 15,15 l 0,90 c 0,8.28 -6.72,15 -15,15 l -258,0 c -8.28,0 -15,-6.72 -15,-15 z" />
      <path
         style="fill:#073642"
         id="path4660"
         d="m 414,515 c 0,1.1 -0.9,2 -2,2 -1.1,0 -2,-0.9 -2,-2 0,-1.1 0.9,-2 2,-2 1.1,0 2,0.9 2,2 z m 2,-7.5 c 0,1.1 -0.9,2 -2,2 -1.1,0 -2,-0.9 -2,-2 0,-1.1 0.9,-2 2,-2 1.1,0 2,0.9 2,2 z m 5.5,-5.5 c 0,1.1 -0.9,2 -2,2 -1.1,0 -2,-0.9 -2,-2 0,-1.1 0.9,-2 2,-2 1.1,0 2,0.9 2,2 z m 7.5,-2 c 0,1.1 -0.9,2 -2,2 -1.1,0 -2,-0.9 -2,-2 0,-1.1 0.9,-2 2,-2 1.1,0 2,0.9 2,2 z m 8.06,0 c 0,1.1 -0.9,2 -2,2 -1.1,0 -2,-0.9 -2,-2 0,-1.1 0.9,-2 2,-2 1.1,0 2,0.9 2,2 z m 8.06,0 c 0,1.1 -0.9,2 -2,2 -1.1,0 -2,-0.9 -2,-2 0,-1.1 0.9,-2 2,-2 1.1,0 2,0.9 2,2 z m 8.07,0 c 0,1.1 -0.9,2 -2,2 -1.12,0 -2,-0.9 -2,-2 0,-1.1 0.88,-2 2,-2 1.1,0 2,0.9 2,2 z m 8.05,0 c 0,1.1 -0.9,2 -2,2 -1.1,0 -2,-0.9 -2,-2 0,-1.1 0.9,-2 2,-2 1.1,0 2,0.9 2,2 z m 8.06,0 c 0,1.1 -0.88,2 -2,2 -1.1,0 -2,-0.9 -2,-2 0,-1.1 0.9,-2 2,-2 1.12,0 2,0.9 2,2 z m 8.07,0 c 0,1.1 -0.9,2 -2,2 -1.1,0 -2,-0.9 -2,-2 0,-1.1 0.9,-2 2,-2 1.1,0 2,0.9 2,2 z m 8.07,0 c 0,1.1 -0.9,2 -2,2 -1.1,0 -2,-0.9 -2,-2 0,-1.1 0.9,-2 2,-2 1.1,0 2,0.9 2,2 z m 8.06,0 c 0,1.1 -0.9,2 -2,2 -1.1,0 -2,-0.9 -2,-2 0,-1.1 0.9,-2 2,-2 1.1,0 2,0.9 2,2 z m 8.06,0 c 0,1.1 -0.9,2 -2,2 -1.1,0 -2,-0.9 -2,-2 0,-1.1 0.9,-2 2,-2 1.1,0 2,0.9 2,2 z m 8.06,0 c 0,1.1 -0.9,2 -2,2 -1.1,0 -2,-0.9 -2,-2 0,-1.1 0.9,-2 2,-2 1.1,0 2,0.9 2,2 z m 8.07,0 c 0,1.1 -0.9,2 -2,2 -1.12,0 -2,-0.9 -2,-2 0,-1.1 0.88,-2 2,-2 1.1,0 2,0.9 2,2 z m 8.05,0 c 0,1.1 -0.9,2 -2,2 -1.1,0 -2,-0.9 -2,-2 0,-1.1 0.9,-2 2,-2 1.1,0 2,0.9 2,2 z m 8.06,0 c 0,1.1 -0.88,2 -2,2 -1.1,0 -2,-0.9 -2,-2 0,-1.1 0.9,-2 2,-2 1.12,0 2,0.9 2,2 z m 8.08,0 c 0,1.1 -0.9,2 -2,2 -1.1,0 -2,-0.9 -2,-2 0,-1.1 0.9,-2 2,-2 1.1,0 2,0.9 2,2 z m 8.06,0 c 0,1.1 -0.9,2 -2,2 -1.1,0 -2,-0.9 -2,-2 0,-1.1 0.9,-2 2,-2 1.1,0 2,0.9 2,2 z m 8.06,0 c 0,1.1 -0.9,2 -2,2 -1.1,0 -2,-0.9 -2,-2 0,-1.1 0.9,-2 2,-2 1.1,0 2,0.9 2,2 z m 8.06,0 c 0,1.1 -0.9,2 -2,2 -1.1,0 -2,-0.9 -2,-2 0,-1.1 0.9,-2 2,-2 1.1,0 2,0.9 2,2 z m 8.07,0 c 0,1.1 -0.9,2 -2,2 -1.1,0 -2,-0.9 -2,-2 0,-1.1 0.9,-2 2,-2 1.1,0 2,0.9 2,2 z m 8.06,0 c 0,1.1 -0.9,2 -2,2 -1.12,0 -2,-0.9 -2,-2 0,-1.1 0.88,-2 2,-2 1.1,0 2,0.9 2,2 z m 8.05,0 c 0,1.1 -0.9,2 -2,2 -1.1,0 -2,-0.9 -2,-2 0,-1.1 0.9,-2 2,-2 1.1,0 2,0.9 2,2 z m 8.06,0 c 0,1.1 -0.88,2 -2,2 -1.1,0 -2,-0.9 -2,-2 0,-1.1 0.9,-2 2,-2 1.12,0 2,0.9 2,2 z m 8.08,0 c 0,1.1 -0.9,2 -2,2 -1.1,0 -2,-0.9 -2,-2 0,-1.1 0.9,-2 2,-2 1.1,0 2,0.9 2,2 z m 8.06,0 c 0,1.1 -0.9,2 -2,2 -1.1,0 -2,-0.9 -2,-2 0,-1.1 0.9,-2 2,-2 1.1,0 2,0.9 2,2 z m 8.06,0 c 0,1.1 -0.9,2 -2,2 -1.1,0 -2,-0.9 -2,-2 0,-1.1 0.9,-2 2,-2 1.1,0 2,0.9 2,2 z m 8.06,0 c 0,1.1 -0.9,2 -2,2 -1.1,0 -2,-0.9 -2,-2 0,-1.1 0.9,-2 2,-2 1.1,0 2,0.9 2,2 z m 8.07,0 c 0,1.1 -0.9,2 -2,2 -1.1,0 -2,-0.9 -2,-2 0,-1.1 0.9,-2 2,-2 1.1,0 2,0.9 2,2 z m 8.06,0 c 0,1.1 -0.9,2 -2,2 -1.12,0 -2,-0.9 -2,-2 0,-1.1 0.88,-2 2,-2 1.1,0 2,0.9 2,2 z m 8.05,0 c 0,1.1 -0.9,2 -2,2 -1.1,0 -2,-0.9 -2,-2 0,-1.1 0.9,-2 2,-2 1.1,0 2,0.9 2,2 z m 8.06,0 c 0,1.1 -0.88,2 -2,2 -1.1,0 -2,-0.9 -2,-2 0,-1.1 0.9,-2 2,-2 1.12,0 2,0.9 2,2 z m 8.08,0 c 0,1.1 -0.9,2 -2,2 -1.1,0 -2,-0.9 -2,-2 0,-1.1 0.9,-2 2,-2 1.1,0 2,0.9 2,2 z m 8.06,0 c 0,1.1 -0.9,2 -2,2 -1.1,0 -2,-0.9 -2,-2 0,-1.1 0.9,-2 2,-2 1.1,0 2,0.9 2,2 z m 8.06,0 c 0,1.1 -0.9,2 -2,2 -1.1,0 -2,-0.9 -2,-2 0,-1.1 0.9,-2 2,-2 1.1,0 2,0.9 2,2 z m 7.5,2 c 0,1.1 -0.9,2 -2,2 -1.1,0 -2,-0.9 -2,-2 0,-1.1 0.9,-2 2,-2 1.1,0 2,0.9 2,2 z m 5.5,5.5 c 0,1.1 -0.9,2 -2,2 -1.1,0 -2,-0.9 -2,-2 0,-1.1 0.9,-2 2,-2 1.1,0 2,0.9 2,2 z m 2,7.5 c 0,1.1 -0.9,2 -2,2 -1.1,0 -2,-0.9 -2,-2 0,-1.1 0.9,-2 2,-2 1.1,0 2,0.9 2,2 z m 0,8.18 c 0,1.1 -0.9,2 -2,2 -1.1,0 -2,-0.9 -2,-2 0,-1.1 0.9,-2 2,-2 1.1,0 2,0.9 2,2 z m 0,8.18 c 0,1.1 -0.9,2 -2,2 -1.1,0 -2,-0.9 -2,-2 0,-1.1 0.9,-2 2,-2 1.1,0 2,0.9 2,2 z m 0,8.2 c 0,1.1 -0.9,2 -2,2 -1.1,0 -2,-0.9 -2,-2 0,-1.12 0.9,-2 2,-2 1.1,0 2,0.88 2,2 z m 0,8.17 c 0,1.1 -0.9,2 -2,2 -1.1,0 -2,-0.9 -2,-2 0,-1.1 0.9,-2 2,-2 1.1,0 2,0.9 2,2 z m 0,8.18 c 0,1.1 -0.9,2 -2,2 -1.1,0 -2,-0.9 -2,-2 0,-1.1 0.9,-2 2,-2 1.1,0 2,0.9 2,2 z m 0,8.2 c 0,1.1 -0.9,2 -2,2 -1.1,0 -2,-0.9 -2,-2 0,-1.1 0.9,-2 2,-2 1.1,0 2,0.9 2,2 z m 0,8.17 c 0,1.1 -0.9,2 -2,2 -1.1,0 -2,-0.9 -2,-2 0,-1.1 0.9,-2 2,-2 1.1,0 2,0.9 2,2 z m 0,8.18 c 0,1.1 -0.9,2 -2,2 -1.1,0 -2,-0.9 -2,-2 0,-1.1 0.9,-2 2,-2 1.1,0 2,0.9 2,2 z m 0,8.2 c 0,1.1 -0.9,2 -2,2 -1.1,0 -2,-0.9 -2,-2 0,-1.12 0.9,-2 2,-2 1.1,0 2,0.88 2,2 z m 0,8.17 c 0,1.1 -0.9,2 -2,2 -1.1,0 -2,-0.9 -2,-2 0,-1.1 0.9,-2 2,-2 1.1,0 2,0.9 2,2 z m 0,8.18 c 0,1.1 -0.9,2 -2,2 -1.1,0 -2,-0.9 -2,-2 0,-1.1 0.9,-2 2,-2 1.1,0 2,0.9 2,2 z m -2,7.5 c 0,1.1 -0.9,2 -2,2 -1.1,0 -2,-0.9 -2,-2 0,-1.1 0.9,-2 2,-2 1.1,0 2,0.9 2,2 z m -5.5,5.5 c 0,1.1 -0.9,2 -2,2 -1.1,0 -2,-0.9 -2,-2 0,-1.1 0.9,-2 2,-2 1.1,0 2,0.9 2,2 z m -7.5,2 c 0,1.1 -0.9,2 -2,2 -1.1,0 -2,-0.9 -2,-2 0,-1.1 0.9,-2 2,-2 1.1,0 2,0.9 2,2 z m -8.06,0 c 0,1.1 -0.9,2 -2,2 -1.1,0 -2,-0.9 -2,-2 0,-1.1 0.9,-2 2,-2 1.1,0 2,0.9 2,2 z m -8.07,0 c 0,1.1 -0.9,2 -2,2 -1.1,0 -2,-0.9 -2,-2 0,-1.1 0.9,-2 2,-2 1.1,0 2,0.9 2,2 z m -8.06,0 c 0,1.1 -0.88,2 -2,2 -1.1,0 -2,-0.9 -2,-2 0,-1.1 0.9,-2 2,-2 1.12,0 2,0.9 2,2 z m -8.05,0 c 0,1.1 -0.9,2 -2,2 -1.1,0 -2,-0.9 -2,-2 0,-1.1 0.9,-2 2,-2 1.1,0 2,0.9 2,2 z m -8.06,0 c 0,1.1 -0.9,2 -2,2 -1.12,0 -2,-0.9 -2,-2 0,-1.1 0.88,-2 2,-2 1.1,0 2,0.9 2,2 z m -8.08,0 c 0,1.1 -0.9,2 -2,2 -1.1,0 -2,-0.9 -2,-2 0,-1.1 0.9,-2 2,-2 1.1,0 2,0.9 2,2 z m -8.06,0 c 0,1.1 -0.9,2 -2,2 -1.1,0 -2,-0.9 -2,-2 0,-1.1 0.9,-2 2,-2 1.1,0 2,0.9 2,2 z m -8.06,0 c 0,1.1 -0.9,2 -2,2 -1.1,0 -2,-0.9 -2,-2 0,-1.1 0.9,-2 2,-2 1.1,0 2,0.9 2,2 z m -8.06,0 c 0,1.1 -0.9,2 -2,2 -1.1,0 -2,-0.9 -2,-2 0,-1.1 0.9,-2 2,-2 1.1,0 2,0.9 2,2 z m -8.07,0 c 0,1.1 -0.9,2 -2,2 -1.1,0 -2,-0.9 -2,-2 0,-1.1 0.9,-2 2,-2 1.1,0 2,0.9 2,2 z m -8.06,0 c 0,1.1 -0.88,2 -2,2 -1.1,0 -2,-0.9 -2,-2 0,-1.1 0.9,-2 2,-2 1.12,0 2,0.9 2,2 z m -8.05,0 c 0,1.1 -0.9,2 -2,2 -1.1,0 -2,-0.9 -2,-2 0,-1.1 0.9,-2 2,-2 1.1,0 2,0.9 2,2 z m -8.06,0 c 0,1.1 -0.9,2 -2,2 -1.12,0 -2,-0.9 -2,-2 0,-1.1 0.88,-2 2,-2 1.1,0 2,0.9 2,2 z m -8.08,0 c 0,1.1 -0.9,2 -2,2 -1.1,0 -2,-0.9 -2,-2 0,-1.1 0.9,-2 2,-2 1.1,0 2,0.9 2,2 z m -8.06,0 c 0,1.1 -0.9,2 -2,2 -1.1,0 -2,-0.9 -2,-2 0,-1.1 0.9,-2 2,-2 1.1,0 2,0.9 2,2 z m -8.06,0 c 0,1.1 -0.9,2 -2,2 -1.1,0 -2,-0.9 -2,-2 0,-1.1 0.9,-2 2,-2 1.1,0 2,0.9 2,2 z m -8.06,0 c 0,1.1 -0.9,2 -2,2 -1.1,0 -2,-0.9 -2,-2 0,-1.1 0.9,-2 2,-2 1.1,0 2,0.9 2,2 z m -8.07,0 c 0,1.1 -0.9,2 -2,2 -1.1,0 -2,-0.9 -2,-2 0,-1.1 0.9,-2 2,-2 1.1,0 2,0.9 2,2 z m -8.06,0 c 0,1.1 -0.88,2 -2,2 -1.1,0 -2,-0.9 -2,-2 0,-1.1 0.9,-2 2,-2 1.12,0 2,0.9 2,2 z m -8.05,0 c 0,1.1 -0.9,2 -2,2 -1.1,0 -2,-0.9 -2,-2 0,-1.1 0.9,-2 2,-2 1.1,0 2,0.9 2,2 z m -8.06,0 c 0,1.1 -0.9,2 -2,2 -1.12,0 -2,-0.9 -2,-2 0,-1.1 0.88,-2 2,-2 1.1,0 2,0.9 2,2 z m -8.08,0 c 0,1.1 -0.9,2 -2,2 -1.1,0 -2,-0.9 -2,-2 0,-1.1 0.9,-2 2,-2 1.1,0 2,0.9 2,2 z m -8.06,0 c 0,1.1 -0.9,2 -2,2 -1.1,0 -2,-0.9 -2,-2 0,-1.1 0.9,-2 2,-2 1.1,0 2,0.9 2,2 z m -8.06,0 c 0,1.1 -0.9,2 -2,2 -1.1,0 -2,-0.9 -2,-2 0,-1.1 0.9,-2 2,-2 1.1,0 2,0.9 2,2 z m -8.06,0 c 0,1.1 -0.9,2 -2,2 -1.1,0 -2,-0.9 -2,-2 0,-1.1 0.9,-2 2,-2 1.1,0 2,0.9 2,2 z m -8.06,0 c 0,1.1 -0.9,2 -2,2 -1.1,0 -2,-0.9 -2,-2 0,-1.1 0.9,-2 2,-2 1.1,0 2,0.9 2,2 z m -8.07,0 c 0,1.1 -0.88,2 -2,2 -1.1,0 -2,-0.9 -2,-2 0,-1.1 0.9,-2 2,-2 1.12,0 2,0.9 2,2 z m -8.05,0 c 0,1.1 -0.9,2 -2,2 -1.1,0 -2,-0.9 -2,-2 0,-1.1 0.9,-2 2,-2 1.1,0 2,0.9 2,2 z m -8.06,0 c 0,1.1 -0.9,2 -2,2 -1.12,0 -2,-0.9 -2,-2 0,-1.1 0.88,-2 2,-2 1.1,0 2,0.9 2,2 z m -8.07,0 c 0,1.1 -0.9,2 -2,2 -1.1,0 -2,-0.9 -2,-2 0,-1.1 0.9,-2 2,-2 1.1,0 2,0.9 2,2 z m -8.07,0 c 0,1.1 -0.9,2 -2,2 -1.1,0 -2,-0.9 -2,-2 0,-1.1 0.9,-2 2,-2 1.1,0 2,0.9 2,2 z m -8.06,0 c 0,1.1 -0.9,2 -2,2 -1.1,0 -2,-0.9 -2,-2 0,-1.1 0.9,-2 2,-2 1.1,0 2,0.9 2,2 z m -7.5,-2 c 0,1.1 -0.9,2 -2,2 -1.1,0 -2,-0.9 -2,-2 0,-1.1 0.9,-2 2,-2 1.1,0 2,0.9 2,2 z m -5.5,-5.5 c 0,1.1 -0.9,2 -2,2 -1.1,0 -2,-0.9 -2,-2 0,-1.1 0.9,-2 2,-2 1.1,0 2,0.9 2,2 z m -2,-7.5 c 0,1.1 -0.9,2 -2,2 -1.1,0 -2,-0.9 -2,-2 0,-1.1 0.9,-2 2,-2 1.1,0 2,0.9 2,2 z m 0,-8.18 c 0,1.1 -0.9,2 -2,2 -1.1,0 -2,-0.9 -2,-2 0,-1.1 0.9,-2 2,-2 1.1,0 2,0.9 2,2 z m 0,-8.18 c 0,1.1 -0.9,2 -2,2 -1.1,0 -2,-0.9 -2,-2 0,-1.1 0.9,-2 2,-2 1.1,0 2,0.9 2,2 z m 0,-8.2 c 0,1.12 -0.9,2 -2,2 -1.1,0 -2,-0.88 -2,-2 0,-1.1 0.9,-2 2,-2 1.1,0 2,0.9 2,2 z m 0,-8.17 c 0,1.1 -0.9,2 -2,2 -1.1,0 -2,-0.9 -2,-2 0,-1.1 0.9,-2 2,-2 1.1,0 2,0.9 2,2 z m 0,-8.18 c 0,1.1 -0.9,2 -2,2 -1.1,0 -2,-0.9 -2,-2 0,-1.1 0.9,-2 2,-2 1.1,0 2,0.9 2,2 z m 0,-8.2 c 0,1.1 -0.9,2 -2,2 -1.1,0 -2,-0.9 -2,-2 0,-1.1 0.9,-2 2,-2 1.1,0 2,0.9 2,2 z m 0,-8.17 c 0,1.1 -0.9,2 -2,2 -1.1,0 -2,-0.9 -2,-2 0,-1.1 0.9,-2 2,-2 1.1,0 2,0.9 2,2 z m 0,-8.18 c 0,1.1 -0.9,2 -2,2 -1.1,0 -2,-0.9 -2,-2 0,-1.1 0.9,-2 2,-2 1.1,0 2,0.9 2,2 z m 0,-8.2 c 0,1.12 -0.9,2 -2,2 -1.1,0 -2,-0.88 -2,-2 0,-1.1 0.9,-2 2,-2 1.1,0 2,0.9 2,2 z m 0,-8.17 c 0,1.1 -0.9,2 -2,2 -1.1,0 -2,-0.9 -2,-2 0,-1.1 0.9,-2 2,-2 1.1,0 2,0.9 2,2 z" />
      <defs
         id="defs4846">
        <path
           style="fill:#002b36"
           id="i"
           d="m 240,-174 c 0,40 -23,61 -54,70 l 67,104 -59,0 -57,-94 -61,0 0,94 -52,0 0,-248 c 93,4 217,-23 216,74 z m -164,40 c 48,-2 112,12 112,-38 0,-48 -66,-32 -112,-35 l 0,73" />
        <path
           style="fill:#002b36"
           id="j"
           d="m 139,-81 c 0,-46 -55,-55 -73,-27 l -48,0 9,-140 149,0 0,37 -104,0 -4,63 c 44,-38 133,-4 122,66 C 201,21 21,35 11,-62 l 49,-4 c 5,18 15,30 39,30 26,0 40,-18 40,-45" />
        <path
           style="fill:#002b36"
           id="k"
           d="m 128,-127 c 34,4 56,21 59,58 7,91 -148,94 -172,28 -4,-9 -6,-17 -7,-26 l 51,-5 c 1,24 16,35 40,36 23,0 39,-12 38,-36 -1,-31 -31,-36 -65,-34 l 0,-40 c 32,2 59,-3 59,-33 0,-20 -13,-33 -34,-33 -21,0 -33,13 -35,32 l -50,-3 c 6,-44 37,-68 86,-68 50,0 83,20 83,66 0,35 -22,52 -53,58" />
        <g
           id="a">
          <use
             height="100%"
             width="100%"
             y="0"
             x="0"
             id="use4852"
             xlink:href="#i"
             transform="scale(0.05555556,0.05555556)" />
          <use
             height="100%"
             width="100%"
             y="0"
             x="0"
             id="use4854"
             xlink:href="#j"
             transform="matrix(0.05555556,0,0,0.05555556,14.388889,0)" />
          <use
             height="100%"
             width="100%"
             y="0"
             x="0"
             id="use4856"
             xlink:href="#k"
             transform="matrix(0.05555556,0,0,0.05555556,25.5,0)" />
        </g>
        <path
           style="fill:#586e75"
           id="l"
           d="M 199,0 177,-63 83,-63 61,0 9,0 l 90,-248 61,0 90,248 -51,0 z m -33,-102 -36,-108 c -10,38 -24,72 -36,108 l 72,0" />
        <path
           style="fill:#586e75"
           id="m"
           d="m 24,-248 c 93,1 206,-16 204,79 -1,75 -69,88 -152,82 l 0,87 -52,0 0,-248 z m 52,121 c 47,0 100,7 100,-41 0,-47 -54,-39 -100,-39 l 0,80" />
        <path
           style="fill:#586e75"
           id="n"
           d="m 24,0 0,-248 52,0 0,248 -52,0" />
        <g
           id="b">
          <use
             height="100%"
             width="100%"
             y="0"
             x="0"
             id="use4862"
             xlink:href="#l"
             transform="scale(0.05,0.05)" />
          <use
             height="100%"
             width="100%"
             y="0"
             x="0"
             id="use4864"
             xlink:href="#m"
             transform="matrix(0.05,0,0,0.05,12.95,0)" />
          <use
             height="100%"
             width="100%"
             y="0"
             x="0"
             id="use4866"
             xlink:href="#n"
             transform="matrix(0.05,0,0,0.05,24.95,0)" />
        </g>
        <path
           style="fill:#586e75"
           id="o"
           d="m 24,0 0,-248 52,0 0,208 133,0 0,40 -185,0" />
        <path
           style="fill:#586e75"
           id="p"
           d="M 133,-34 C 117,-15 103,5 69,4 32,3 11,-16 11,-54 c -1,-60 55,-63 116,-61 1,-26 -3,-47 -28,-47 -18,1 -26,9 -28,27 l -52,-2 c 7,-38 36,-58 82,-57 46,1 74,22 75,68 l 1,82 c -1,14 12,18 25,15 l 0,27 c -30,8 -71,5 -69,-32 z m -48,3 c 29,0 43,-24 42,-57 -32,0 -66,-3 -65,30 0,17 8,27 23,27" />
        <path
           style="fill:#586e75"
           id="q"
           d="m 220,-157 c -53,9 -28,100 -34,157 l -49,0 0,-107 c 1,-27 -5,-49 -29,-50 C 55,-147 81,-57 75,0 l -50,0 -1,-190 47,0 c 2,12 -1,28 3,38 10,-53 101,-56 108,0 13,-22 24,-43 59,-42 82,1 51,116 57,194 l -49,0 0,-107 c -1,-25 -5,-48 -29,-50" />
        <path
           style="fill:#586e75"
           id="r"
           d="m 135,-194 c 52,0 70,43 70,98 0,56 -19,99 -73,100 -30,1 -46,-15 -58,-35 l -2,31 -48,0 1,-261 50,0 0,104 c 11,-23 29,-37 60,-37 z m -21,164 c 31,0 40,-27 40,-66 0,-37 -7,-63 -39,-63 -32,0 -41,28 -41,65 0,36 8,64 40,64" />
        <path
           style="fill:#586e75"
           id="s"
           d="m 88,-194 c 31,-1 46,15 58,34 l -1,-101 50,0 1,261 -48,0 c -2,-10 0,-23 -3,-31 C 134,-8 116,4 84,4 32,4 16,-41 15,-95 c 0,-56 19,-97 73,-99 z m 17,164 c 33,0 40,-30 41,-66 1,-37 -9,-64 -41,-64 -32,0 -38,30 -39,65 0,43 13,65 39,65" />
        <g
           id="c">
          <use
             height="100%"
             width="100%"
             y="0"
             x="0"
             id="use4874"
             xlink:href="#o"
             transform="scale(0.05,0.05)" />
          <use
             height="100%"
             width="100%"
             y="0"
             x="0"
             id="use4876"
             xlink:href="#p"
             transform="matrix(0.05,0,0,0.05,10.95,0)" />
          <use
             height="100%"
             width="100%"
             y="0"
             x="0"
             id="use4878"
             xlink:href="#q"
             transform="matrix(0.05,0,0,0.05,20.95,0)" />
          <use
             height="100%"
             width="100%"
             y="0"
             x="0"
             id="use4880"
             xlink:href="#r"
             transform="matrix(0.05,0,0,0.05,36.95,0)" />
          <use
             height="100%"
             width="100%"
             y="0"
             x="0"
             id="use4882"
             xlink:href="#s"
             transform="matrix(0.05,0,0,0.05,47.9,0)" />
          <use
             height="100%"
             width="100%"
             y="0"
             x="0"
             id="use4884"
             xlink:href="#p"
             transform="matrix(0.05,0,0,0.05,58.85,0)" />
        </g>
        <path
           style="fill:#586e75"
           id="t"
           d="m 128,-127 c 34,4 56,21 59,58 7,91 -148,94 -172,28 -4,-9 -6,-17 -7,-26 l 51,-5 c 1,24 16,35 40,36 23,0 39,-12 38,-36 -1,-31 -31,-36 -65,-34 l 0,-40 c 32,2 59,-3 59,-33 0,-20 -13,-33 -34,-33 -21,0 -33,13 -35,32 l -50,-3 c 6,-44 37,-68 86,-68 50,0 83,20 83,66 0,35 -22,52 -53,58" />
        <path
           style="fill:#586e75"
           id="u"
           d="m 101,-251 c 68,0 84,54 84,127 C 185,-50 166,4 99,4 32,4 15,-52 14,-124 c -1,-75 17,-127 87,-127 z m -1,216 c 37,-5 36,-46 36,-89 0,-43 4,-89 -36,-89 -39,0 -36,45 -36,89 0,43 -3,85 36,89" />
        <path
           style="fill:#586e75"
           id="v"
           d="m 52,0 c 1,-96 47,-148 87,-207 l -124,0 0,-41 169,0 0,40 C 148,-146 105,-95 103,0 L 52,0" />
        <g
           id="d">
          <use
             height="100%"
             width="100%"
             y="0"
             x="0"
             id="use4890"
             xlink:href="#t"
             transform="scale(0.05,0.05)" />
          <use
             height="100%"
             width="100%"
             y="0"
             x="0"
             id="use4892"
             xlink:href="#u"
             transform="matrix(0.05,0,0,0.05,10,0)" />
          <use
             height="100%"
             width="100%"
             y="0"
             x="0"
             id="use4894"
             xlink:href="#v"
             transform="matrix(0.05,0,0,0.05,20,0)" />
        </g>
        <path
           style="fill:#002b36"
           id="w"
           d="m 4,7 51,-268 42,0 L 46,7 4,7" />
        <use
           height="100%"
           width="100%"
           y="0"
           x="0"
           id="e"
           xlink:href="#w"
           transform="scale(0.05,0.05)" />
        <path
           style="fill:#002b36"
           id="x"
           d="m 25,0 0,-261 50,0 0,261 -50,0" />
        <path
           style="fill:#002b36"
           id="y"
           d="M 133,-34 C 117,-15 103,5 69,4 32,3 11,-16 11,-54 c -1,-60 55,-63 116,-61 1,-26 -3,-47 -28,-47 -18,1 -26,9 -28,27 l -52,-2 c 7,-38 36,-58 82,-57 46,1 74,22 75,68 l 1,82 c -1,14 12,18 25,15 l 0,27 c -30,8 -71,5 -69,-32 z m -48,3 c 29,0 43,-24 42,-57 -32,0 -66,-3 -65,30 0,17 8,27 23,27" />
        <path
           style="fill:#002b36"
           id="z"
           d="m 220,-157 c -53,9 -28,100 -34,157 l -49,0 0,-107 c 1,-27 -5,-49 -29,-50 C 55,-147 81,-57 75,0 l -50,0 -1,-190 47,0 c 2,12 -1,28 3,38 10,-53 101,-56 108,0 13,-22 24,-43 59,-42 82,1 51,116 57,194 l -49,0 0,-107 c -1,-25 -5,-48 -29,-50" />
        <path
           style="fill:#002b36"
           id="A"
           d="m 135,-194 c 52,0 70,43 70,98 0,56 -19,99 -73,100 -30,1 -46,-15 -58,-35 l -2,31 -48,0 1,-261 50,0 0,104 c 11,-23 29,-37 60,-37 z m -21,164 c 31,0 40,-27 40,-66 0,-37 -7,-63 -39,-63 -32,0 -41,28 -41,65 0,36 8,64 40,64" />
        <path
           style="fill:#002b36"
           id="B"
           d="m 88,-194 c 31,-1 46,15 58,34 l -1,-101 50,0 1,261 -48,0 c -2,-10 0,-23 -3,-31 C 134,-8 116,4 84,4 32,4 16,-41 15,-95 c 0,-56 19,-97 73,-99 z m 17,164 c 33,0 40,-30 41,-66 1,-37 -9,-64 -41,-64 -32,0 -38,30 -39,65 0,43 13,65 39,65" />
        <g
           id="f">
          <use
             height="100%"
             width="100%"
             y="0"
             x="0"
             id="use4904"
             xlink:href="#w"
             transform="scale(0.05,0.05)" />
          <use
             height="100%"
             width="100%"
             y="0"
             x="0"
             id="use4906"
             xlink:href="#x"
             transform="matrix(0.05,0,0,0.05,5,0)" />
          <use
             height="100%"
             width="100%"
             y="0"
             x="0"
             id="use4908"
             xlink:href="#y"
             transform="matrix(0.05,0,0,0.05,10,0)" />
          <use
             height="100%"
             width="100%"
             y="0"
             x="0"
             id="use4910"
             xlink:href="#z"
             transform="matrix(0.05,0,0,0.05,20,0)" />
          <use
             height="100%"
             width="100%"
             y="0"
             x="0"
             id="use4912"
             xlink:href="#A"
             transform="matrix(0.05,0,0,0.05,36,0)" />
          <use
             height="100%"
             width="100%"
             y="0"
             x="0"
             id="use4914"
             xlink:href="#B"
             transform="matrix(0.05,0,0,0.05,46.95,0)" />
          <use
             height="100%"
             width="100%"
             y="0"
             x="0"
             id="use4916"
             xlink:href="#y"
             transform="matrix(0.05,0,0,0.05,57.9,0)" />
        </g>
        <path
           style="fill:#002b36"
           id="C"
           d="m 137,-138 c 1,-29 -70,-34 -71,-4 15,46 118,7 119,86 1,83 -164,76 -172,9 l 43,-7 c 4,19 20,25 44,25 33,8 57,-30 24,-41 -43,-14 -102,-11 -104,-66 -2,-80 154,-74 161,-7" />
        <g
           id="g">
          <use
             height="100%"
             width="100%"
             y="0"
             x="0"
             id="use4920"
             xlink:href="#w"
             transform="scale(0.05,0.05)" />
          <use
             height="100%"
             width="100%"
             y="0"
             x="0"
             id="use4922"
             xlink:href="#C"
             transform="matrix(0.05,0,0,0.05,5,0)" />
          <use
             height="100%"
             width="100%"
             y="0"
             x="0"
             id="use4924"
             xlink:href="#k"
             transform="matrix(0.05,0,0,0.05,15,0)" />
        </g>
        <path
           style="fill:#586e75"
           id="D"
           d="m 169,-182 c -1,-43 -94,-46 -97,-3 18,66 151,10 154,114 3,95 -165,93 -204,36 -6,-8 -10,-19 -12,-30 l 50,-8 c 3,46 112,56 116,5 -17,-69 -150,-10 -154,-114 -4,-87 153,-88 188,-35 5,8 8,18 10,28" />
        <g
           id="h">
          <use
             height="100%"
             width="100%"
             y="0"
             x="0"
             id="use4928"
             xlink:href="#D"
             transform="scale(0.04938272,0.04938272)" />
          <use
             height="100%"
             width="100%"
             y="0"
             x="0"
             id="use4930"
             xlink:href="#t"
             transform="matrix(0.04938272,0,0,0.04938272,11.851852,0)" />
        </g>
      </defs>
    </g>
  </g>
  <g
     style="display:inline"
     id="layer10">
    <path
       style="fill:none;stroke:#586e75;stroke-width:2"
       id="path4790"
       d="m 236.8,150 3.78,-0.44 3.44,-0.25 3.17,-0.07 2.93,0.06 2.75,0.17 2.6,0.3 2.48,0.38 2.37,0.48 2.3,0.58 2.22,0.68 2.18,0.77 2.16,0.87 2.13,1 2.15,1.1 2.18,1.24 2.23,1.42 2.3,1.62 2.43,1.88 2.6,2.2 2.86,2.66 3.28,3.35 4.06,4.52 6.25,7.68 22.5,28.84 5.7,6.34 4.97,5.08 4.66,4.32 4.48,3.8 2.67,2.1 2.87,2.1 3.05,2.03 3.25,2 3.5,1.93 3.76,1.88 4.1,1.85 4.45,1.78 4.9,1.72 5.44,1.66 6.1,1.6 6.94,1.5 8.02,1.38 9.5,1.22 11.65,1 15.24,0.68 23.6,-0.01 72,-2"
       transform="translate(-80,-32)" />
    <path
       style="fill:#586e75"
       id="path4792"
       d="M 251.25,154.05 236.8,150 l 14.07,-5.2 z"
       transform="translate(-80,-32)" />
    <path
       style="fill:#586e75"
       id="path4794"
       d="m 252.3,155.4 -14.7,-4.14 -1.34,-2.13 15.55,-5.76 z m -12.26,-5.53 10.15,2.85 -0.27,-6.5 z M 535,255 l -14.13,5.03 -0.26,-9.27 z"
       transform="translate(-80,-32)" />
    <path
       style="fill:#586e75"
       id="path4796"
       d="m 538.23,254.9 -18.32,6.54 -0.33,-12.02 z m -16.4,3.73 9.94,-3.54 -10.12,-3 z"
       transform="translate(-80,-32)" />
  </g>
  <g
     style="display:inline"
     id="layer11">
    <path
       style="fill:#39474b"
       id="path4698"
       d="m 573.52,248.9 13.74,-1.04 0,-16.86 -13.74,3.5 0,14.4 z"
       transform="translate(-80,-32)" />
    <path
       style="fill:#586e75"
       id="path4700"
       d="m 578.86,246.74 -14.28,-2.03 0,-24.71 14.28,7 0,19.74 z m 15.54,2.16 -7.14,-0.97 0,-16.93 7.14,3.5 0,14.4 z"
       transform="translate(-80,-32)" />
    <path
       style="fill:#273134"
       id="path4702"
       d="m 573.52,248.9 13.56,-1.04 7.32,1.05 -13.14,0.78 -7.74,-0.77 z"
       transform="translate(-80,-32)" />
    <path
       style="fill:#39474b"
       id="path4704"
       d="m 573.52,260.8 13.74,1.06 0,16.87 -13.74,-3.5 0,-14.43 z"
       transform="translate(-80,-32)" />
    <path
       style="fill:#586e75"
       id="path4706"
       d="m 578.86,262.98 -14.28,2.02 0,24.72 14.28,-7 0,-19.74 z m 15.36,-2.18 -7.14,1 0,16.93 7.14,-3.5 0,-14.43 z"
       transform="translate(-80,-32)" />
    <path
       style="fill:#93a1a6"
       id="path4708"
       d="m 573.52,260.8 13.56,1 7.32,-1 -13.14,-0.76 -7.74,0.77 z"
       transform="translate(-80,-32)" />
    <path
       style="fill:#586e75"
       id="path4710"
       d="m 555.76,248.9 -13.74,-1.04 0,-16.86 13.74,3.5 0,14.4 z"
       transform="translate(-80,-32)" />
    <path
       style="fill:#39474b"
       id="path4712"
       d="m 550.36,246.74 14.34,-2.03 0,-24.71 -14.34,7 0,19.74 z m -15.36,2.16 7.14,-0.97 0,-16.93 -7.14,3.5 0,14.4 z"
       transform="translate(-80,-32)" />
    <path
       style="fill:#273134"
       id="path4714"
       d="m 555.88,248.9 -13.56,-1.04 -7.32,1.05 13.14,0.78 7.74,-0.77 z"
       transform="translate(-80,-32)" />
    <path
       style="fill:#586e75"
       id="path4716"
       d="m 555.76,260.8 -13.74,1.06 0,16.87 13.74,-3.5 0,-14.43 z"
       transform="translate(-80,-32)" />
    <path
       style="fill:#39474b"
       id="path4718"
       d="m 550.36,262.98 14.34,2.02 0,24.72 -14.34,-7 0,-19.74 z M 535,260.8 l 7.14,1 0,16.93 -7.14,-3.5 0,-14.43 z"
       transform="translate(-80,-32)" />
    <path
       style="fill:#93a1a6"
       id="path4720"
       d="m 555.88,260.8 -13.56,1 -7.32,-1 13.14,-0.76 7.74,0.77 z m 23.1,2.18 -14.28,-1.4 -14.34,1.4 14.34,2.02 14.28,-2.02 z"
       transform="translate(-80,-32)" />
    <path
       style="fill:#273134"
       id="path4722"
       d="m 578.98,246.74 -14.28,1.33 -14.34,-1.33 14.34,-2.03 14.28,2.04 z"
       transform="translate(-80,-32)" />
  </g>
  <g
     style="display:inline"
     id="layer12">
    <path
       style="fill:#586e75;stroke:#000000;stroke-width:2;stroke-opacity:0"
       id="path4746"
       d="m 440,302 80,0 0,30 -80,0 z"
       transform="translate(-80,-32)" />
    <use
       height="100%"
       width="100%"
       y="0"
       x="0"
       id="use4748"
       transform="translate(397.5,289.4)"
       xlink:href="#e" />
  </g>
  <g
     style="display:inline"
     id="layer13">
    <path
       style="fill:#586e75;stroke:#000000;stroke-width:2;stroke-opacity:0"
       id="path4750"
       d="m 525,302 80,0 0,30 -80,0 z"
       transform="translate(-80,-32)" />
    <use
       height="100%"
       width="100%"
       y="0"
       x="0"
       id="use4752"
       transform="translate(451.05,289.4)"
       xlink:href="#f" />
  </g>
  <g
     style="display:inline"
     id="layer22">
    <path
       style="fill:#39474b"
       id="path4758"
       d="m 627.63,534.88 c -0.1,-0.24 -0.13,-0.48 -0.13,-0.72 l 0.13,0.72 z m 44.51,0 0.13,-0.72 c 0,0.24 -0.04,0.48 -0.13,0.72 z"
       transform="translate(-80,-32)" />
    <path
       style="fill:#39474b"
       id="path4760"
       d="m 672.27,531.64 0,2.52 -0.13,0.72 0,-2.46 0.13,-0.78 z m -44.64,0.78 0,2.46 -0.13,-0.72 0,-2.52 0.13,0.78 z m 44.64,-5.52 0,2.46 c 0,3.84 -10.03,6.9 -22.4,6.9 -12.34,0 -22.37,-3.06 -22.37,-6.9 l 0,-2.46 c 0,3.78 10.03,6.9 22.37,6.9 12.37,0 22.4,-3.12 22.4,-6.9 z"
       transform="translate(-80,-32)" />
    <path
       style="fill:#39474b"
       id="path4762"
       d="m 672.27,526.9 0,2.46 c 0,0.12 0,0.18 -0.04,0.3 l 0,-2.52 c 0.04,-0.06 0.04,-0.18 0.04,-0.24 m -0.04,0.24 0,2.52 c 0,0.12 0,0.18 -0.05,0.3 l 0,-2.52 c 0.05,-0.06 0.05,-0.18 0.05,-0.3 m -0.05,0.3 0,2.52 c -0.04,0.12 -0.08,0.3 -0.13,0.42 l 0,-2.46 c 0.05,-0.18 0.1,-0.3 0.13,-0.48 m -0.13,0.48 0,2.46 c -1.62,3.36 -10.93,5.88 -22.18,5.88 -12.34,0 -22.37,-3.06 -22.37,-6.9 l 0,-2.46 c 0,3.78 10.03,6.9 22.37,6.9 11.25,0 20.56,-2.58 22.18,-5.88"
       transform="translate(-80,-32)" />
    <path
       style="fill:#586e75"
       id="path4764"
       d="m 649.87,520 c 12.37,0 22.4,3.06 22.4,6.9 0,3.78 -10.03,6.9 -22.4,6.9 -12.34,0 -22.37,-3.12 -22.37,-6.9 0,-3.84 10.03,-6.9 22.37,-6.9 z"
       transform="translate(-80,-32)" />
    <path
       style="fill:#39474b"
       id="path4766"
       d="m 672.14,532.42 0,2.46 -7.34,40.92 0,-2.46 7.34,-40.92 z m -37.17,40.92 0,2.46 -7.34,-40.92 0,-2.46 7.34,40.92 z m 29.83,0 0,2.46 c 0,2.58 -6.65,4.62 -14.93,4.62 -8.24,0 -14.9,-2.04 -14.9,-4.62 l 0,-2.46 c 0,2.52 6.66,4.56 14.9,4.56 8.27,0 14.93,-2.04 14.93,-4.56 z m 0,0 0,2.64 0,-2.46 0,-0.18"
       transform="translate(-80,-32)" />
    <path
       style="fill:#39474b"
       id="path4768"
       d="m 664.8,573.52 0,2.46 c 0,0.12 -0.04,0.18 -0.04,0.24 l 0,-2.52 c 0,-0.06 0.04,-0.12 0.04,-0.18 m -0.04,0.18 0,2.52 c -0.04,0.12 -0.04,0.18 -0.1,0.3 l 0,-2.52 c 0.06,-0.06 0.06,-0.18 0.1,-0.3"
       transform="translate(-80,-32)" />
    <path
       style="fill:#39474b"
       id="path4770"
       d="m 664.67,574 0,2.52 c -1.08,2.22 -7.3,3.9 -14.8,3.9 -8.24,0 -14.9,-2.04 -14.9,-4.62 l 0,-2.46 c 0,2.52 6.66,4.56 14.9,4.56 7.5,0 13.72,-1.68 14.8,-3.9"
       transform="translate(-80,-32)" />
    <path
       style="fill:#586e75"
       id="path4772"
       d="m 649.87,538.54 c 11.5,0 21,-2.7 22.27,-6.12 l -7.34,40.92 c 0,2.52 -6.65,4.56 -14.93,4.56 -8.24,0 -14.9,-2.04 -14.9,-4.56 l -7.34,-40.92 c 1.26,3.42 10.72,6.12 22.24,6.12 z"
       transform="translate(-80,-32)" />
    <path
       style="fill:#e15343"
       id="path4774"
       d="m 672.32,532.06 c 0.04,0.06 0.04,0.06 0.04,0.12 l 0,-0.06 c 0,0 0,-0.06 -0.04,-0.06 z m 0,-0.12 c 0,-0.06 -0.05,-0.12 -0.05,-0.18 0,0.06 0.05,0.12 0.05,0.18 z"
       transform="translate(-80,-32)" />
    <use
       height="100%"
       width="100%"
       y="0"
       x="0"
       id="use4776"
       transform="translate(559.1358,562.22222)"
       xlink:href="#h" />
  </g>
  <g
     style="display:inline"
     id="layer19">
    <path
       style="fill:none;stroke:#586e75;stroke-width:2"
       id="path4822"
       d="m 650,332 0,188"
       transform="translate(-80,-32)" />
    <path
       style="fill:#586e75"
       id="path4824"
       d="m 654.64,346.27 -9.28,0 L 650,332 Z"
       transform="translate(-80,-32)" />
    <path
       style="fill:#586e75"
       id="path4826"
       d="m 656,347.27 -12,0 4.95,-15.27 2.1,0 z m -9.26,-2 6.52,0 L 650,335.24 Z M 650,520 l -4.64,-14.25 9.28,0 z"
       transform="translate(-80,-32)" />
    <path
       style="fill:#586e75"
       id="path4828"
       d="m 651.02,520.12 -1.15,-0.12 -0.44,0 -0.47,0.05 -4.97,-15.3 12,0 z m -4.28,-13.37 3.26,10.03 3.26,-10.03 z"
       transform="translate(-80,-32)" />
  </g>
  <g
     style="display:inline"
     id="layer18">
    <path
       style="fill:#93a1a6;stroke:#000000;stroke-opacity:0"
       id="path4614"
       d="m 586.54,431.24 8.46,-17.46 -14.58,-0.48 -9.42,0.48 15.54,17.46 z"
       transform="translate(-80,-32)" />
    <path
       style="fill:#273134;stroke:#000000;stroke-opacity:0"
       id="path4616"
       d="M 586.54,388.94 595,406.52 580.42,407 571,406.52 586.54,388.94 Z M 543.46,389 535,406.46 549.58,407 559,406.52 543.46,389 Z"
       transform="translate(-80,-32)" />
    <path
       style="fill:#93a1a6;stroke:#000000;stroke-opacity:0"
       id="path4618"
       d="m 543.46,431.24 -8.46,-17.46 14.58,-0.48 9.42,0.48 -15.54,17.46 z"
       transform="translate(-80,-32)" />
    <path
       style="fill:#586e75;stroke:#000000;stroke-opacity:0"
       id="path4620"
       d="m 586.54,388.94 0,16.86 8.46,0.72 0,-14.04 -8.46,-3.54 z"
       transform="translate(-80,-32)" />
    <path
       style="fill:#3f4f54;stroke:#000000;stroke-opacity:0"
       id="path4622"
       d="m 571,406.52 0,-14.04 15.54,-3.54 0,16.86 -15.54,0.72 z"
       transform="translate(-80,-32)" />
    <path
       style="fill:#586e75;stroke:#000000;stroke-opacity:0"
       id="path4624"
       d="m 565,399.44 0,-9 16.92,4.56 0,6.9 -16.92,-2.46 z"
       transform="translate(-80,-32)" />
    <path
       style="fill:#273134;stroke:#000000;stroke-opacity:0"
       id="path4626"
       d="m 574.42,402.56 -16.98,-1.98 7.62,-1.14 16.86,2.46 -7.5,0.66 z"
       transform="translate(-80,-32)" />
    <path
       style="fill:#3f4f54;stroke:#000000;stroke-opacity:0"
       id="path4628"
       d="m 543.46,388.94 0,16.86 -8.46,0.66 0,-14.1 8.46,-3.42 z"
       transform="translate(-80,-32)" />
    <path
       style="fill:#586e75;stroke:#000000;stroke-opacity:0"
       id="path4630"
       d="m 559,406.52 0,-14.04 -15.54,-3.54 0,16.86 15.54,0.72 z"
       transform="translate(-80,-32)" />
    <path
       style="fill:#3f4f54;stroke:#000000;stroke-opacity:0"
       id="path4632"
       d="m 565,399.44 0,-9 -16.92,4.56 0,6.9 16.92,-2.46 z"
       transform="translate(-80,-32)" />
    <path
       style="fill:#273134;stroke:#000000;stroke-opacity:0"
       id="path4634"
       d="m 555.58,402.56 16.98,-1.98 -7.62,-1.14 -16.86,2.46 7.5,0.66 z"
       transform="translate(-80,-32)" />
    <path
       style="fill:#586e75;stroke:#000000;stroke-opacity:0"
       id="path4636"
       d="m 586.54,431.24 0,-16.8 8.46,-0.66 0,13.98 -8.46,3.48 z"
       transform="translate(-80,-32)" />
    <path
       style="fill:#3f4f54;stroke:#000000;stroke-opacity:0"
       id="path4638"
       d="m 571,413.78 0,14.04 15.54,3.42 0,-16.8 -15.54,-0.66 z"
       transform="translate(-80,-32)" />
    <path
       style="fill:#586e75;stroke:#000000;stroke-opacity:0"
       id="path4640"
       d="m 565,420.8 0,9 16.92,-4.5 0,-7.02 -16.92,2.52 z"
       transform="translate(-80,-32)" />
    <path
       style="fill:#93a1a6;stroke:#000000;stroke-opacity:0"
       id="path4642"
       d="m 574.42,417.62 -16.98,2.04 7.62,1.14 16.86,-2.52 -7.5,-0.66 z"
       transform="translate(-80,-32)" />
    <path
       style="fill:#3f4f54;stroke:#000000;stroke-opacity:0"
       id="path4644"
       d="m 543.46,431.24 0,-16.8 -8.46,-0.66 0,13.98 8.46,3.48 z"
       transform="translate(-80,-32)" />
    <path
       style="fill:#586e75;stroke:#000000;stroke-opacity:0"
       id="path4646"
       d="m 559,413.78 0,14.04 -15.54,3.42 0,-16.8 15.54,-0.66 z"
       transform="translate(-80,-32)" />
    <path
       style="fill:#3f4f54;stroke:#000000;stroke-opacity:0"
       id="path4648"
       d="m 565,420.8 0,9 -16.92,-4.5 0,-7.02 16.92,2.52 z"
       transform="translate(-80,-32)" />
    <path
       style="fill:#93a1a6;stroke:#000000;stroke-opacity:0"
       id="path4650"
       d="m 555.58,417.62 16.98,2.04 -7.62,1.14 -16.86,-2.52 7.5,-0.66 z"
       transform="translate(-80,-32)" />
    <path
       style="fill:#3f4f54;stroke:#000000;stroke-opacity:0"
       id="path4652"
       d="m 574,383.72 -9,-3.72 -9,3.72 0,52.56 9,3.72 5.04,-2.1 3.96,-54.18 z"
       transform="translate(-80,-32)" />
    <path
       style="fill:#586e75;stroke:#000000;stroke-opacity:0"
       id="path4654"
       d="m 574,383.72 0,52.56 -9,3.72 0,-60 9,3.72 z"
       transform="translate(-80,-32)" />
    <use
       height="100%"
       width="100%"
       y="0"
       x="0"
       id="use4656"
       transform="translate(470.025,422.4)"
       xlink:href="#b" />
  </g>
  <g
     style="display:inline"
     id="layer17">
    <path
       style="fill:#586e75;stroke:#000000;stroke-opacity:0"
       id="path4724"
       d="m 461.16,392.36 -7.32,-1.5 0,38.28 7.32,-1.38 z m 14.28,37.86 -11.46,3.12 0,-46.74 11.46,3.06 z"
       transform="translate(-80,-32)" />
    <path
       style="fill:#273134;stroke:#000000;stroke-opacity:0"
       id="path4726"
       d="m 483.72,395.24 5.22,-2.22 17.46,5.58 -4.68,0.48 z"
       transform="translate(-80,-32)" />
    <path
       style="fill:#93a1a6;stroke:#000000;stroke-opacity:0"
       id="path4728"
       d="m 483.9,424.76 5.16,2.22 17.4,-5.58 -4.62,-0.48 z"
       transform="translate(-80,-32)" />
    <path
       style="fill:#39474b;stroke:#000000;stroke-opacity:0"
       id="path4730"
       d="m 485.22,418.58 9.18,1.02 0,-19.2 -9.18,1.02 z"
       transform="translate(-80,-32)" />
    <path
       style="fill:#586e75;stroke:#000000;stroke-opacity:0"
       id="path4732"
       d="M 488.94,436.28 480,440 l 0,-60 8.94,3.78 z"
       transform="translate(-80,-32)" />
    <path
       style="fill:#586e75;stroke:#000000;stroke-opacity:0"
       id="path4734"
       d="m 510,420.56 -30,7.44 0,12 30,-12.42 z"
       transform="translate(-80,-32)" />
    <path
       style="fill:#586e75;stroke:#000000;stroke-opacity:0"
       id="path4736"
       d="m 506.16,390.86 3.84,1.56 0,35.16 -3.84,1.56 z"
       transform="translate(-80,-32)" />
    <path
       style="fill:#586e75;stroke:#000000;stroke-opacity:0"
       id="path4738"
       d="m 480,392 30,7.44 0,-7.02 L 480,380 Z"
       transform="translate(-80,-32)" />
    <path
       style="fill:#39474b;stroke:#000000;stroke-opacity:0"
       id="path4740"
       d="m 471.06,436.28 8.94,3.72 0,-60 -8.94,3.78 z m -12.72,-47.34 5.64,-2.34 0,46.8 -5.64,-2.34 z m -8.34,38.64 3.84,1.56 0,-38.28 -3.84,1.56 z m 51.54,-28.5 4.62,-0.48 0,22.92 -4.62,-0.54 z"
       transform="translate(-80,-32)" />
    <path
       style="fill:#586e75;stroke:#000000;stroke-opacity:0"
       id="path4742"
       d="m 494.4,400.4 0,19.26 9.54,-9.66 z"
       transform="translate(-80,-32)" />
    <use
       height="100%"
       width="100%"
       y="0"
       x="0"
       id="use4744"
       transform="translate(385,422.4)"
       xlink:href="#d" />
  </g>
  <g
     style="display:inline"
     id="layer15">
    <path
       style="fill:none;stroke:#586e75;stroke-width:2"
       id="path4814"
       d="m 480,332 0,48"
       transform="translate(-80,-32)" />
    <path
       style="fill:#586e75"
       id="path4816"
       d="m 484.64,346.27 -9.28,0 L 480,332 Z"
       transform="translate(-80,-32)" />
    <path
       style="fill:#586e75"
       id="path4818"
       d="m 486,347.27 -12,0 4.95,-15.27 2.1,0 z m -9.26,-2 6.52,0 L 480,335.24 Z M 480,380 l -4.64,-14.27 9.28,0 z"
       transform="translate(-80,-32)" />
    <path
       style="fill:#586e75"
       id="path4820"
       d="m 479.08,380.4 -5.1,-15.67 12.03,0 -5.07,15.65 -0.93,-0.38 0.92,0.4 -0.92,2.84 0,-3.24 z m -2.34,-13.67 3.26,10.03 3.26,-10.03 z"
       transform="translate(-80,-32)" />
  </g>
  <g
     style="display:inline"
     id="layer16">
    <path
       style="fill:none;stroke:#586e75;stroke-width:2"
       id="path4806"
       d="m 565,332 0,48"
       transform="translate(-80,-32)" />
    <path
       style="fill:#586e75"
       id="path4808"
       d="m 569.64,346.27 -9.28,0 L 565,332 Z"
       transform="translate(-80,-32)" />
    <path
       style="fill:#586e75"
       id="path4810"
       d="m 571,347.27 -12,0 4.95,-15.27 2.1,0 z m -9.26,-2 6.52,0 L 565,335.24 Z M 565,380 l -4.64,-14.27 9.28,0 z"
       transform="translate(-80,-32)" />
    <path
       style="fill:#586e75"
       id="path4812"
       d="m 565,380 -0.93,0.38 -5.08,-15.65 12,0 -5.07,15.65 -0.93,2.86 z m -3.26,-13.27 3.26,10.03 3.26,-10.03 z"
       transform="translate(-80,-32)" />
  </g>
  <g
     style="display:inline"
     id="layer4">
    <g
       style="stroke:url(#linearGradient9450);stroke-opacity:1"
       id="g9393">
      <path
         style="display:none;fill:#586e75"
         id="path4844"
         d="m 397.52,114.76 -0.22,0.53 -17.54,5.78 -0.05,-12.02 z m -15.77,3.56 10,-3.3 -10.03,-3.22 z"
         transform="translate(-80,-32)" />
      <path
         transform="translate(-80,-32)"
         d="m 236.8,150 10.6,-6.3 9.36,-5.07 8.53,-4.15 7.97,-3.48 7.65,-2.96 7.5,-2.55 7.54,-2.22 7.8,-1.93 8.28,-1.7 9.18,-1.46 10.79,-1.28 14.03,-1.05 24.37,-0.76 24.6,-0.1"
         id="path4838"
         style="fill:none;stroke:url(#linearGradient9450);stroke-width:2;stroke-opacity:1" />
      <path
         transform="translate(-80,-32)"
         d="m 253,147.47 -15.63,3.43 -1.12,-1.78 10.7,-12.02 z m -13.4,0.9 10.3,-2.26 -3.3,-5.62 z M 395,115 l -14.24,4.7 -0.05,-9.27 z"
         id="path4842"
         style="fill:#586e75;stroke:url(#linearGradient9450);stroke-opacity:1" />
      <path
         transform="translate(-80,-32)"
         d="m 251.46,146.8 -14.66,3.2 9.97,-11.2 z"
         id="path4840"
         style="fill:#586e75;stroke:url(#linearGradient9450);stroke-opacity:1" />
    </g>
  </g>
  <g
     style="display:inline"
     id="layer3">
    <path
       style="fill:#39474b"
       id="path4604"
       d="m 240.4,163.08 0,3.36 c -0.08,0.66 -0.16,1.32 -0.4,1.98 l 0,-3.42 c 0.24,-0.66 0.32,-1.32 0.4,-1.92 m -0.4,1.92 0,3.42 c -0.24,0.78 -0.56,1.62 -0.88,2.4 l 0,-3.42 c 0.32,-0.78 0.64,-1.56 0.88,-2.4 m -0.88,2.4 0,3.42 c -2.56,5.28 -8.24,9.48 -14.88,9.48 l 0,-3.42 c 6.64,0 12.32,-4.2 14.88,-9.48 m -14.88,9.48 0,3.42 -48,0 -1.28,-4.68 49.28,1.26 z"
       transform="translate(-80,-32)" />
    <path
       style="fill:#586e75"
       id="path4610"
       d="m 190.96,120 c 8.4,0 15.6,5.64 18.8,13.8 1.68,-1.32 3.68,-2.1 5.92,-2.1 5.68,0 10.24,5.1 10.4,11.46 8.16,0.78 14.4,9.72 14.4,16.8 l 0,1.56 c 0,7.62 -7.28,15.36 -16.24,15.36 l -48,0 c -8.96,0 -16.24,-7.74 -16.24,-15.36 l 0,-1.56 c 0,-5.88 4.32,-13.98 10.4,-15.96 l 0,-0.72 c 0,-12.84 9.2,-23.28 20.56,-23.28 z"
       transform="translate(-80,-32)" />
    <path
       style="fill:#39474b"
       id="path4600"
       d="m 240.48,161.52 0,3.36 c 0,7.68 -7.28,15.42 -16.24,15.42 l 0,-3.42 c 8.96,0 16.24,-7.74 16.24,-15.36 z"
       transform="translate(-80,-32)" />
    <path
       style="fill:#39474b"
       id="path4608"
       d="m 176.24,176.88 0,3.42 c -8.96,0 -16.24,-7.74 -16.24,-15.42 l 0,-3.36 c 0,7.62 7.28,15.36 16.24,15.36"
       transform="translate(-80,-32)" />
    <path
       style="fill:#39474b"
       id="path4606"
       d="m 176.24,176.88 0,3.42 c -8.96,0 -16.24,-7.74 -16.24,-15.42 l 0,-3.36 c 0,7.62 7.28,15.36 16.24,15.36 z"
       transform="translate(-80,-32)" />
  </g>
  <g
     style="display:inline"
     id="layer2">
    <path
       style="fill:none;stroke:#586e75;stroke-width:2"
       id="path4798"
       d="m 113.12,150 50.27,0"
       transform="translate(-80,-32)" />
    <path
       style="fill:#586e75"
       id="path4800"
       d="M 127.4,154.64 113.1,150 127.37,145.36 Z"
       transform="translate(-80,-32)" />
    <path
       style="fill:#586e75"
       id="path4802"
       d="m 128.4,156 -11.9,-3.85 -2.15,-1.65 -2.66,-1.1 16.7,-5.4 z m -12.04,-6 10.03,3.26 0,-6.52 z m 47.04,0 -14.28,4.64 0,-9.28 z"
       transform="translate(-80,-32)" />
    <path
       style="fill:#586e75"
       id="path4804"
       d="m 164.03,149.16 -1.38,1.8 -0.15,0.38 -14.38,4.67 0,-12 z m -13.9,4.1 10.02,-3.26 -10.03,-3.26 z"
       transform="translate(-80,-32)" />
  </g>
  <g
     style="display:inline"
     id="layer1">
    <path
       style="fill:#586e75"
       id="path4570"
       d="m 100.2,120 c 6.48,0 11.76,5.64 11.76,12.54 0,6.9 -5.28,12.48 -11.76,12.48 -6.52,0 -11.8,-5.58 -11.8,-12.48 0,-6.9 5.28,-12.54 11.8,-12.54 z"
       transform="translate(-80,-32)" />
    <path
       style="fill:#586e75"
       id="path4580"
       d="m 106.92,148.62 c 7.44,0 13.44,4.8 13.44,12.72 l 0,15.9 -7.76,0 0,-11.16 -1.32,0 0,11.16 -21.92,0 0,-11.16 -1.32,0 0,11.16 -8.04,0 0,-15.9 c 0,-7.92 6,-12.72 13.44,-12.72 l 13.48,0 z"
       transform="translate(-80,-32)" />
    <path
       style="visibility:visible;fill:#39474b"
       id="path4582"
       visibility="visible"
       d="m 112.6,177.24 7.76,0 0,2.7 -7.76,0 0,-2.7 m -23.24,0 21.92,0 0,2.7 -21.92,0 0,-2.7 m -9.36,0 8.04,0 0,2.7 -8.04,0 0,-2.7 m 359.55,-66.94 0,-2.05 c 0,-4.7 3.25,-8.65 3.45,-8.9 l 0,2.05 c -0.2,0.2 -3.45,4.15 -3.45,8.9 z"
       transform="translate(-80,-32)" />
    <path
       style="fill:#39474b"
       id="path4578"
       d="m 111.4,136.32 0,2.7 c -0.24,0.78 -0.52,1.5 -0.88,2.22 l 0,-2.7 c 0.36,-0.72 0.64,-1.44 0.88,-2.22 m -0.88,2.22 0,2.7 c -2,3.84 -5.88,6.48 -10.32,6.48 -6.52,0 -11.8,-5.58 -11.8,-12.48 l 0,-2.7 c 0,6.9 5.28,12.48 11.8,12.48 4.44,0 8.32,-2.64 10.32,-6.48 m 0.76,27.54 1.32,0 0,2.7 -1.32,0 0,-2.7 m -23.24,0 1.32,0 0,2.7 -1.32,0 0,-2.7 z"
       transform="translate(-80,-32)" />
    <path
       style="fill:#39474b"
       id="path4572"
       d="m 111.96,132.54 0,2.7 c 0,6.9 -5.28,12.48 -11.76,12.48 -6.52,0 -11.8,-5.58 -11.8,-12.48 l 0,-2.7 c 0,6.9 5.28,12.48 11.8,12.48 6.48,0 11.76,-5.58 11.76,-12.48 z"
       transform="translate(-80,-32)" />
    <path
       style="fill:#39474b"
       id="path4576"
       d="m 111.84,134.28 0,2.7 c -0.08,0.72 -0.24,1.38 -0.44,2.04 l -0.44,-2.22 c 0.2,-0.66 0.8,-1.8 0.88,-2.52"
       transform="translate(-80,-32)" />
  </g>
  <g
     style="display:inline"
     id="layer6">
    <path
       style="visibility:visible;fill:#586e75"
       id="path4694"
       visibility="visible"
       d="m 371.04,32 c 8.32,0 15.52,4.56 18.72,11.04 1.68,-1.06 3.76,-1.68 5.92,-1.68 5.68,0 10.24,4.08 10.4,9.17 8.16,0.62 14.48,7.77 14.48,13.44 l 0,1.25 c 0,6.1 -7.28,12.28 -16.32,12.28 l -47.92,0 C 347.28,77.5 340,71.3 340,65.22 l 0,-1.25 c 0,-4.7 4.32,-11.2 10.48,-12.77 C 350.4,51 350.4,50.86 350.4,50.67 350.4,40.35 359.6,32 370.96,32 Z"
       transform="translate(-80,-32)" />
    <path
       style="fill:#002b36;stroke:url(#linearGradient9480)"
       id="path4696"
       d="m 360.16,53.84 -5.36,17.18 3.2,0 1.2,-4.22 5.52,0 1.2,4.22 3.12,0 -4.96,-17.18 -3.92,0 m -0.4,10.75 2.24,-8.46 0.08,0 2.16,8.45 -4.48,0 m 22.8,2.65 -0.08,0 -2.48,-13.4 -3.2,0 -2.48,13.35 -0.08,0 -2.48,-13.34 -3.04,0 3.6,17.18 3.52,0 2.4,-12.96 0.08,0 2.48,12.96 3.44,0 3.76,-17.18 -2.96,0 -2.48,13.4 m 15.2,-5.62 -2.08,-0.68 c -2,-0.67 -2.8,-1.44 -2.8,-2.88 0,-1.82 1.2,-2.5 2.56,-2.5 1.84,0 2.64,0.92 2.64,2.5 l 0,0.34 3.04,0 0,-0.38 c 0,-1.78 -0.56,-4.52 -5.36,-4.52 -3.6,0 -5.92,1.73 -5.92,4.85 0,2.45 1.2,3.75 3.92,4.7 l 2.08,0.68 c 1.76,0.43 2.72,1.25 2.72,3.02 0,1.3 -0.96,2.55 -2.88,2.55 -2.08,0 -3.04,-1.1 -3.04,-3.17 l 0,-0.43 -3.04,0 0,0.38 c 0,2.4 1.04,5.28 5.76,5.28 3.76,0 6.24,-1.54 6.24,-5.18 0,-2.36 -1.2,-3.7 -3.84,-4.56 z"
       transform="translate(-80,-32)" />
    <path
       style="fill:#39474b"
       id="path4684"
       d="m 420.56,65.22 0,2.73 c 0,6.1 -7.28,12.3 -16.32,12.3 l 0,-2.75 c 9.04,0 16.32,-6.2 16.32,-12.28 z"
       transform="translate(-80,-32)" />
    <path
       style="fill:#39474b"
       id="path4686"
       d="m 420.56,65.22 0,2.73 c 0,0.43 0,0.82 -0.08,1.25 l 0,-2.74 c 0.08,-0.43 0.08,-0.8 0.08,-1.24 m -0.08,1.24 0,2.74 c -0.08,0.53 -0.24,1 -0.4,1.54 l 0,-2.74 c 0.16,-0.48 0.32,-1 0.4,-1.54 m -0.4,1.54 0,2.74 c -0.24,0.67 -0.56,1.3 -0.96,1.96 l 0,-2.73 c 0.4,-0.63 0.72,-1.3 0.96,-1.97 m -0.96,1.97 0,2.73 c -2.56,4.18 -8.24,7.54 -14.88,7.54 l 0,-2.74 c 6.64,0 12.32,-3.36 14.88,-7.53"
       transform="translate(-80,-32)" />
    <path
       style="fill:#39474b"
       id="path4688"
       d="m 405.04,77.02 -0.8,3.22 -47.92,0 -0.88,-3.22 49.6,0 z"
       transform="translate(-80,-32)" />
    <path
       style="fill:#39474b"
       id="path4692"
       d="m 356.32,77.5 0,2.74 c -9.04,0 -16.32,-6.2 -16.32,-12.3 l 0,-2.72 c 0,6.1 7.28,12.28 16.32,12.28"
       transform="translate(-80,-32)" />
    <path
       style="fill:#39474b"
       id="path4690"
       d="m 356.32,77.5 0,2.74 c -9.04,0 -16.32,-6.2 -16.32,-12.3 l 0,-2.72 c 0,6.1 7.28,12.28 16.32,12.28 z"
       transform="translate(-80,-32)" />
  </g>
  <g
     style="display:inline"
     id="layer7">
    <path
       style="fill:#39474b"
       id="path4584"
       d="m 443,99.35 0,2.05 c -0.1,0.1 -0.9,1.1 -1.7,2.6 l 0,-2 c 0.8,-1.55 1.6,-2.55 1.7,-2.65 m -1.7,2.65 0,2 c -0.45,0.8 -0.85,1.75 -1.2,2.75 l 0,-2 c 0.35,-1.05 0.75,-1.95 1.2,-2.75 m -1.2,2.75 0,2 c -0.2,0.65 -0.35,1.35 -0.45,2.05 l 0,-2.05 c 0.1,-0.7 0.25,-1.35 0.45,-2 m -0.45,2 0,2.05 c -0.05,0.45 -0.1,0.95 -0.1,1.5 l 0,-2.05 c 0,-0.5 0.05,-1 0.1,-1.5 m -40.05,2.05 0,2 c 0,-4.15 -3.3,-8.4 -3.45,-8.65 l 0,-2 c 0.15,0.25 3.45,4.45 3.45,8.65 z"
       transform="translate(-80,-32)" />
    <path
       style="fill:#39474b"
       id="path4586"
       d="m 399.6,108.8 0,2 c 0,-4.15 -3.3,-8.4 -3.45,-8.65 l 0,-2 c 0.15,0.25 3.45,4.45 3.45,8.65 m -3.65,13.9 0,-2 c 0,0.7 0.05,1.45 0.2,2.35 2.1,13.55 18.9,7.85 24.35,14.65 l 0,2.05 c -5.45,-6.85 -22.25,-1.15 -24.35,-14.7 -0.15,-0.85 -0.2,-1.65 -0.2,-2.35 z"
       transform="translate(-80,-32)" />
    <path
       style="fill:#39474b"
       id="path4588"
       d="m 420.5,137.7 0,2.05 c -5.45,-6.85 -22.25,-1.15 -24.35,-14.7 -0.15,-0.85 -0.2,-1.65 -0.2,-2.35 l 0,-2 c 0,0.7 0.05,1.45 0.2,2.35 2.1,13.55 18.9,7.85 24.35,14.65"
       transform="translate(-80,-32)" />
    <path
       style="fill:#586e75"
       id="path4590"
       d="m 420.35,90 c 0.3,0 0.55,0.1 0.6,0.2 2.5,2.9 5,3.9 7.25,3.9 4.5,0 7.75,-3.75 7.95,-3.95 l 6.85,9.2 c -0.2,0.25 -3.65,4.4 -3.45,9.3 0.25,5.75 5.45,7.85 4.15,14.4 -2.3,11.75 -13.4,7 -22.4,14.65 -0.2,0.15 -0.35,0.2 -0.45,0.2 -0.2,0 -0.3,-0.2 -0.35,-0.2 -5.45,-6.8 -22.25,-1.1 -24.35,-14.65 -1.15,-7.45 3.2,-8.35 3.4,-13.9 0.2,-4.3 -3.2,-8.75 -3.4,-9 l 8,-10 c 0.15,0.2 3.5,3.65 8.15,3.65 2.35,0 5,-0.9 7.6,-3.65 0.15,-0.1 0.3,-0.15 0.45,-0.15 z"
       transform="translate(-80,-32)" />
    <path
       style="fill:#39474b"
       id="path4592"
       d="m 443.9,121.05 0,2 c 0,0.65 -0.05,1.3 -0.2,2 -2.3,11.8 -13.4,7 -22.4,14.7 -0.2,0.15 -0.35,0.2 -0.45,0.2 -0.2,0 -0.3,-0.2 -0.35,-0.2 l 0,-2.05 c 0.05,0 0.15,0.2 0.35,0.2 0.1,0 0.25,-0.05 0.45,-0.2 9,-7.65 20.1,-2.9 22.4,-14.65 0.15,-0.75 0.2,-1.4 0.2,-2 z"
       transform="translate(-80,-32)" />
    <path
       style="fill:#39474b"
       id="path4594"
       d="m 443.9,121.05 0,2 c 0,0.45 0,0.9 -0.1,1.4 l 0,-2.05 c 0.1,-0.45 0.1,-0.9 0.1,-1.35"
       transform="translate(-80,-32)" />
    <path
       style="fill:#39474b"
       id="path4596"
       d="m 443.8,122.4 0,2.05 c 0,0.2 -0.05,0.4 -0.1,0.6 -0.1,0.6 -0.25,1.15 -0.4,1.65 l 0,-2.05 c 0.15,-0.5 0.3,-1.05 0.4,-1.6 0.05,-0.2 0.1,-0.45 0.1,-0.65 m -0.5,2.25 0,2.05 c -0.25,0.75 -0.5,1.45 -0.85,2.05 l 0,-2 c 0.35,-0.65 0.6,-1.3 0.85,-2.1 m -0.85,2.1 0,2 c -3.8,7.1 -13.3,4.3 -21.15,11 -0.2,0.15 -0.35,0.2 -0.45,0.2 -0.2,0 -0.3,-0.2 -0.35,-0.2 l 0,-2.05 c 0.05,0 0.15,0.2 0.35,0.2 0.1,0 0.25,-0.05 0.45,-0.2 7.85,-6.7 17.35,-3.9 21.15,-10.95"
       transform="translate(-80,-32)" />
    <use
       height="100%"
       width="100%"
       y="0"
       x="0"
       id="use4598"
       transform="translate(321.69444,84)"
       xlink:href="#a" />
  </g>
  <g
     style="display:inline"
     id="layer8">
    <path
       style="fill:#39474b"
       id="path4778"
       d="m 413.84,191.8 11.92,0 0,2.24 -11.92,0 0,-2.24 z m 26.32,6.92 0,2.2 c -3.52,-1.44 -8.32,-2.84 -14.4,-3.32 l 0,-2.24 c 6.08,0.48 10.88,1.88 14.4,3.36 z"
       transform="translate(-80,-32)" />
    <path
       style="fill:#39474b"
       id="path4780"
       d="m 440.16,198.72 0,2.2 c -3.52,-1.44 -8.32,-2.84 -14.4,-3.32 l 0,-2.24 c 6.08,0.48 10.88,1.88 14.4,3.36 m -26.32,-3 0,2.24 c -5.76,0.88 -10.48,2.6 -13.84,4.24 l 0,-2.24 c 3.36,-1.6 8.08,-3.36 13.84,-4.24 z"
       transform="translate(-80,-32)" />
    <path
       style="fill:#39474b"
       id="path4782"
       d="m 413.84,195.72 0,2.24 c -5.76,0.88 -10.48,2.6 -13.84,4.24 l 0,-2.24 c 3.36,-1.6 8.08,-3.36 13.84,-4.24"
       transform="translate(-80,-32)" />
    <path
       style="fill:#586e75"
       id="path4784"
       d="m 440.16,180 0,19.96 0,-1.24 c -3.52,-1.48 -8.32,-2.88 -14.4,-3.36 l 0,-3.56 -11.92,0 0,3.92 c -5.76,0.88 -10.48,2.64 -13.84,4.24 l 0,-19.96 40.16,0 z"
       transform="translate(-80,-32)" />
    <path
       style="fill:#586e75"
       id="path4786"
       d="m 425.76,199.16 c 6.04,0.48 10.84,1.88 14.4,3.36 l 0,15.12 -40.16,0 0,-14.04 c 3.32,-1.6 8,-3.32 13.84,-4.16 l 0,4.4 11.92,0 0,-4.68 z"
       transform="translate(-80,-32)" />
    <path
       style="fill:#39474b"
       id="path4788"
       d="m 400,217.64 40.16,0 0,2.24 -40.16,0 0,-2.24 z"
       transform="translate(-80,-32)" />
  </g>
  <g
     style="display:inline"
     id="layer14">
    <path
       style="fill:#586e75;stroke:#000000;stroke-width:2;stroke-opacity:0"
       id="path4754"
       d="m 610,302 80,0 0,30 -80,0 z"
       transform="translate(-80,-32)" />
    <use
       height="100%"
       width="100%"
       y="0"
       x="0"
       id="use4756"
       transform="translate(557.5,289.4)"
       xlink:href="#g" />
  </g>
  <g
     style="display:inline"
     id="layer20">
    <path
       style="fill:none;stroke:#586e75;stroke-width:2"
       id="path4830"
       d="m 565,460 0,60"
       transform="translate(-80,-32)" />
    <path
       style="fill:#586e75"
       id="path4832"
       d="m 569.64,474.27 -9.28,0 L 565,460 Z"
       transform="translate(-80,-32)" />
    <path
       style="fill:#586e75"
       id="path4834"
       d="m 571,475.27 -12,0 6,-18.5 z m -9.26,-2 6.52,0 L 565,463.24 Z M 565,520 l -4.64,-14.27 9.28,0 z"
       transform="translate(-80,-32)" />
    <path
       style="fill:#586e75"
       id="path4836"
       d="m 564.08,520.4 -5.1,-15.67 12.03,0 -5.07,15.65 -0.93,-0.38 0.92,0.4 -0.92,2.84 0,-3.24 z m -2.34,-13.67 3.26,10.03 3.26,-10.03 z"
       transform="translate(-80,-32)" />
  </g>
  <g
     style="display:inline"
     id="layer21">
    <path
       style="fill:#586e75;stroke:#000000;stroke-opacity:0"
       id="path4662"
       d="m 546.16,532.36 -7.32,-1.5 0,38.28 7.32,-1.38 z m 14.28,37.86 -11.46,3.12 0,-46.74 11.46,3.06 z"
       transform="translate(-80,-32)" />
    <path
       style="fill:#273134;stroke:#000000;stroke-opacity:0"
       id="path4664"
       d="m 568.72,535.24 5.22,-2.22 17.46,5.58 -4.68,0.48 z"
       transform="translate(-80,-32)" />
    <path
       style="fill:#93a1a6;stroke:#000000;stroke-opacity:0"
       id="path4666"
       d="m 568.9,564.76 5.16,2.22 17.4,-5.58 -4.62,-0.48 z"
       transform="translate(-80,-32)" />
    <path
       style="fill:#39474b;stroke:#000000;stroke-opacity:0"
       id="path4668"
       d="m 570.22,558.58 9.18,1.02 0,-19.2 -9.18,1.02 z"
       transform="translate(-80,-32)" />
    <path
       style="fill:#586e75;stroke:#000000;stroke-opacity:0"
       id="path4670"
       d="M 573.94,576.28 565,580 l 0,-60 8.94,3.78 z"
       transform="translate(-80,-32)" />
    <path
       style="fill:#586e75;stroke:#000000;stroke-opacity:0"
       id="path4672"
       d="m 595,560.56 -30,7.44 0,12 30,-12.42 z"
       transform="translate(-80,-32)" />
    <path
       style="fill:#586e75;stroke:#000000;stroke-opacity:0"
       id="path4674"
       d="m 591.16,530.86 3.84,1.56 0,35.16 -3.84,1.56 z"
       transform="translate(-80,-32)" />
    <path
       style="fill:#586e75;stroke:#000000;stroke-opacity:0"
       id="path4676"
       d="m 565,532 30,7.44 0,-7.02 L 565,520 Z"
       transform="translate(-80,-32)" />
    <path
       style="fill:#39474b;stroke:#000000;stroke-opacity:0"
       id="path4678"
       d="m 556.06,576.28 8.94,3.72 0,-60 -8.94,3.78 z m -12.72,-47.34 5.64,-2.34 0,46.8 -5.64,-2.34 z m -8.34,38.64 3.84,1.56 0,-38.28 -3.84,1.56 z m 51.54,-28.5 4.62,-0.48 0,22.92 -4.62,-0.54 z"
       transform="translate(-80,-32)" />
    <path
       style="fill:#586e75;stroke:#000000;stroke-opacity:0"
       id="path4680"
       d="m 579.4,540.4 0,19.26 9.54,-9.66 z"
       transform="translate(-80,-32)" />
    <use
       height="100%"
       width="100%"
       y="0"
       x="0"
       id="use4682"
       transform="translate(450.575,562.4)"
       xlink:href="#c" />
  </g>
</svg>
