<svg id="svg4564" xmlns:rdf="http://www.w3.org/1999/02/22-rdf-syntax-ns#" xmlns="http://www.w3.org/2000/svg" xmlns:lucid="lucid" viewBox="0 0 717 629" version="1.1" xmlns:cc="http://creativecommons.org/ns#" xmlns:xlink="http://www.w3.org/1999/xlink" xmlns:dc="http://purl.org/dc/elements/1.1/">
 <defs>
  <path id="i" class="fill-002b36" d="m240-174c0 40-23 61-54 70l67 104h-59l-57-94h-61v94h-52v-248c93 4 217-23 216 74zm-164 40c48-2 112 12 112-38 0-48-66-32-112-35v73"/>
  <path id="j" class="fill-002b36" d="m139-81c0-46-55-55-73-27h-48l9-140h149v37h-104l-4 63c44-38 133-4 122 66 11 103-169 117-179 20l49-4c5 18 15 30 39 30 26 0 40-18 40-45"/>
  <path id="k" class="fill-002b36" d="m128-127c34 4 56 21 59 58 7 91-148 94-172 28-4-9-6-17-7-26l51-5c1 24 16 35 40 36 23 0 39-12 38-36-1-31-31-36-65-34v-40c32 2 59-3 59-33 0-20-13-33-34-33s-33 13-35 32l-50-3c6-44 37-68 86-68 50 0 83 20 83 66 0 35-22 52-53 58"/>
  <g id="a">
   <use id="use4852" xlink:href="#i" transform="scale(.055556)" height="100%" width="100%" y="0" x="0"/>
   <use id="use4854" xlink:href="#j" transform="matrix(.055556 0 0 .055556 14.389 0)" height="100%" width="100%" y="0" x="0"/>
   <use id="use4856" xlink:href="#k" transform="matrix(.055556 0 0 .055556 25.5 0)" height="100%" width="100%" y="0" x="0"/>
  </g>
  <path id="l" class="fill-586e75" d="m199 0-22-63h-94l-22 63h-52l90-248h61l90 248h-51zm-33-102-36-108c-10 38-24 72-36 108h72"/>
  <path id="m" class="fill-586e75" d="m24-248c93 1 206-16 204 79-1 75-69 88-152 82v87h-52v-248zm52 121c47 0 100 7 100-41 0-47-54-39-100-39v80"/>
  <path id="n" class="fill-586e75" d="m24 0v-248h52v248h-52"/>
  <g id="b">
   <use id="use4862" xlink:href="#l" transform="scale(.05)" height="100%" width="100%" y="0" x="0"/>
   <use id="use4864" xlink:href="#m" transform="matrix(.05 0 0 .05 12.95 0)" height="100%" width="100%" y="0" x="0"/>
   <use id="use4866" xlink:href="#n" transform="matrix(.05 0 0 .05 24.95 0)" height="100%" width="100%" y="0" x="0"/>
  </g>
  <path id="o" class="fill-586e75" d="m24 0v-248h52v208h133v40h-185"/>
  <path id="p" class="fill-586e75" d="m133-34c-16 19-30 39-64 38-37-1-58-20-58-58-1-60 55-63 116-61 1-26-3-47-28-47-18 1-26 9-28 27l-52-2c7-38 36-58 82-57s74 22 75 68l1 82c-1 14 12 18 25 15v27c-30 8-71 5-69-32zm-48 3c29 0 43-24 42-57-32 0-66-3-65 30 0 17 8 27 23 27"/>
  <path id="q" class="fill-586e75" d="m220-157c-53 9-28 100-34 157h-49v-107c1-27-5-49-29-50-53 10-27 100-33 157h-50l-1-190h47c2 12-1 28 3 38 10-53 101-56 108 0 13-22 24-43 59-42 82 1 51 116 57 194h-49v-107c-1-25-5-48-29-50"/>
  <path id="r" class="fill-586e75" d="m135-194c52 0 70 43 70 98 0 56-19 99-73 100-30 1-46-15-58-35l-2 31h-48l1-261h50v104c11-23 29-37 60-37zm-21 164c31 0 40-27 40-66 0-37-7-63-39-63s-41 28-41 65c0 36 8 64 40 64"/>
  <path id="s" class="fill-586e75" d="m88-194c31-1 46 15 58 34l-1-101h50l1 261h-48c-2-10 0-23-3-31-11 23-29 35-61 35-52 0-68-45-69-99 0-56 19-97 73-99zm17 164c33 0 40-30 41-66 1-37-9-64-41-64s-38 30-39 65c0 43 13 65 39 65"/>
  <g id="c">
   <use id="use4874" xlink:href="#o" transform="scale(.05)" height="100%" width="100%" y="0" x="0"/>
   <use id="use4876" xlink:href="#p" transform="matrix(.05 0 0 .05 10.95 0)" height="100%" width="100%" y="0" x="0"/>
   <use id="use4878" xlink:href="#q" transform="matrix(.05 0 0 .05 20.95 0)" height="100%" width="100%" y="0" x="0"/>
   <use id="use4880" xlink:href="#r" transform="matrix(.05 0 0 .05 36.95 0)" height="100%" width="100%" y="0" x="0"/>
   <use id="use4882" xlink:href="#s" transform="matrix(.05 0 0 .05 47.9 0)" height="100%" width="100%" y="0" x="0"/>
   <use id="use4884" xlink:href="#p" transform="matrix(.05 0 0 .05 58.85 0)" height="100%" width="100%" y="0" x="0"/>
  </g>
  <path id="t" class="fill-586e75" d="m128-127c34 4 56 21 59 58 7 91-148 94-172 28-4-9-6-17-7-26l51-5c1 24 16 35 40 36 23 0 39-12 38-36-1-31-31-36-65-34v-40c32 2 59-3 59-33 0-20-13-33-34-33s-33 13-35 32l-50-3c6-44 37-68 86-68 50 0 83 20 83 66 0 35-22 52-53 58"/>
  <path id="u" class="fill-586e75" d="m101-251c68 0 84 54 84 127 0 74-19 128-86 128s-84-56-85-128c-1-75 17-127 87-127zm-1 216c37-5 36-46 36-89s4-89-36-89c-39 0-36 45-36 89 0 43-3 85 36 89"/>
  <path id="v" class="fill-586e75" d="m52 0c1-96 47-148 87-207h-124v-41h169v40c-36 62-79 113-81 208h-51"/>
  <g id="d">
   <use id="use4890" xlink:href="#t" transform="scale(.05)" height="100%" width="100%" y="0" x="0"/>
   <use id="use4892" xlink:href="#u" transform="matrix(.05 0 0 .05 10 0)" height="100%" width="100%" y="0" x="0"/>
   <use id="use4894" xlink:href="#v" transform="matrix(.05 0 0 .05 20 0)" height="100%" width="100%" y="0" x="0"/>
  </g>
  <path id="w" class="fill-002b36" d="m4 7 51-268h42l-51 268h-42"/>
  <use id="e" xlink:href="#w" transform="scale(.05)" height="100%" width="100%" y="0" x="0"/>
  <path id="x" class="fill-002b36" d="m25 0v-261h50v261h-50"/>
  <path id="y" class="fill-002b36" d="m133-34c-16 19-30 39-64 38-37-1-58-20-58-58-1-60 55-63 116-61 1-26-3-47-28-47-18 1-26 9-28 27l-52-2c7-38 36-58 82-57s74 22 75 68l1 82c-1 14 12 18 25 15v27c-30 8-71 5-69-32zm-48 3c29 0 43-24 42-57-32 0-66-3-65 30 0 17 8 27 23 27"/>
  <path id="z" class="fill-002b36" d="m220-157c-53 9-28 100-34 157h-49v-107c1-27-5-49-29-50-53 10-27 100-33 157h-50l-1-190h47c2 12-1 28 3 38 10-53 101-56 108 0 13-22 24-43 59-42 82 1 51 116 57 194h-49v-107c-1-25-5-48-29-50"/>
  <path id="A" class="fill-002b36" d="m135-194c52 0 70 43 70 98 0 56-19 99-73 100-30 1-46-15-58-35l-2 31h-48l1-261h50v104c11-23 29-37 60-37zm-21 164c31 0 40-27 40-66 0-37-7-63-39-63s-41 28-41 65c0 36 8 64 40 64"/>
  <path id="B" class="fill-002b36" d="m88-194c31-1 46 15 58 34l-1-101h50l1 261h-48c-2-10 0-23-3-31-11 23-29 35-61 35-52 0-68-45-69-99 0-56 19-97 73-99zm17 164c33 0 40-30 41-66 1-37-9-64-41-64s-38 30-39 65c0 43 13 65 39 65"/>
  <g id="f">
   <use id="use4904" xlink:href="#w" transform="scale(.05)" height="100%" width="100%" y="0" x="0"/>
   <use id="use4906" xlink:href="#x" transform="matrix(.05 0 0 .05 5 0)" height="100%" width="100%" y="0" x="0"/>
   <use id="use4908" xlink:href="#y" transform="matrix(.05 0 0 .05 10 0)" height="100%" width="100%" y="0" x="0"/>
   <use id="use4910" xlink:href="#z" transform="matrix(.05 0 0 .05 20 0)" height="100%" width="100%" y="0" x="0"/>
   <use id="use4912" xlink:href="#A" transform="matrix(.05 0 0 .05 36 0)" height="100%" width="100%" y="0" x="0"/>
   <use id="use4914" xlink:href="#B" transform="matrix(.05 0 0 .05 46.95 0)" height="100%" width="100%" y="0" x="0"/>
   <use id="use4916" xlink:href="#y" transform="matrix(.05 0 0 .05 57.9 0)" height="100%" width="100%" y="0" x="0"/>
  </g>
  <path id="C" class="fill-002b36" d="m137-138c1-29-70-34-71-4 15 46 118 7 119 86 1 83-164 76-172 9l43-7c4 19 20 25 44 25 33 8 57-30 24-41-43-14-102-11-104-66-2-80 154-74 161-7"/>
  <g id="g">
   <use id="use4920" xlink:href="#w" transform="scale(.05)" height="100%" width="100%" y="0" x="0"/>
   <use id="use4922" xlink:href="#C" transform="matrix(.05 0 0 .05 5 0)" height="100%" width="100%" y="0" x="0"/>
   <use id="use4924" xlink:href="#k" transform="matrix(.05 0 0 .05 15 0)" height="100%" width="100%" y="0" x="0"/>
  </g>
  <path id="D" class="fill-586e75" d="m169-182c-1-43-94-46-97-3 18 66 151 10 154 114 3 95-165 93-204 36-6-8-10-19-12-30l50-8c3 46 112 56 116 5-17-69-150-10-154-114-4-87 153-88 188-35 5 8 8 18 10 28"/>
  <g id="h">
   <use id="use4928" xlink:href="#D" transform="scale(.049383)" height="100%" width="100%" y="0" x="0"/>
   <use id="use4930" xlink:href="#t" transform="matrix(.049383 0 0 .049383 11.852 0)" height="100%" width="100%" y="0" x="0"/>
  </g>
 </defs>
 <g id="layer5">
  <path id="path4568" d="m316 75c0-8.28 6.72-15 15-15h450c8.28 0 15 6.72 15 15v570c0 8.28-6.72 15-15 15h-450c-8.28 0-15-6.72-15-15z" transform="translate(-80,-32)"  stroke-width="2"  class="stroke-073642 fill-002b36"/>
 </g>
 <g id="layer9">
  <path id="path4612" d="m412 215c0-8.28 6.72-15 15-15h258c8.28 0 15 6.72 15 15v250c0 8.28-6.72 15-15 15h-258c-8.28 0-15-6.72-15-15z" stroke-opacity="0" transform="translate(-80,-32)" class="fill-073642"/>
 </g>
 <g id="layer23">
  <g id="g4566" transform="translate(-80,-32)" class="fill-073642" lucid:page-tab-id="0_0">
   <path id="path4658" d="m412 515c0-8.28 6.72-15 15-15h258c8.28 0 15 6.72 15 15v90c0 8.28-6.72 15-15 15h-258c-8.28 0-15-6.72-15-15z"/>
   <path id="path4660" d="m414 515c0 1.1-0.9 2-2 2s-2-0.9-2-2 0.9-2 2-2 2 0.9 2 2zm2-7.5c0 1.1-0.9 2-2 2s-2-0.9-2-2 0.9-2 2-2 2 0.9 2 2zm5.5-5.5c0 1.1-0.9 2-2 2s-2-0.9-2-2 0.9-2 2-2 2 0.9 2 2zm7.5-2c0 1.1-0.9 2-2 2s-2-0.9-2-2 0.9-2 2-2 2 0.9 2 2zm8.06 0c0 1.1-0.9 2-2 2s-2-0.9-2-2 0.9-2 2-2 2 0.9 2 2zm8.06 0c0 1.1-0.9 2-2 2s-2-0.9-2-2 0.9-2 2-2 2 0.9 2 2zm8.07 0c0 1.1-0.9 2-2 2-1.12 0-2-0.9-2-2s0.88-2 2-2c1.1 0 2 0.9 2 2zm8.05 0c0 1.1-0.9 2-2 2s-2-0.9-2-2 0.9-2 2-2 2 0.9 2 2zm8.06 0c0 1.1-0.88 2-2 2-1.1 0-2-0.9-2-2s0.9-2 2-2c1.12 0 2 0.9 2 2zm8.07 0c0 1.1-0.9 2-2 2s-2-0.9-2-2 0.9-2 2-2 2 0.9 2 2zm8.07 0c0 1.1-0.9 2-2 2s-2-0.9-2-2 0.9-2 2-2 2 0.9 2 2zm8.06 0c0 1.1-0.9 2-2 2s-2-0.9-2-2 0.9-2 2-2 2 0.9 2 2zm8.06 0c0 1.1-0.9 2-2 2s-2-0.9-2-2 0.9-2 2-2 2 0.9 2 2zm8.06 0c0 1.1-0.9 2-2 2s-2-0.9-2-2 0.9-2 2-2 2 0.9 2 2zm8.07 0c0 1.1-0.9 2-2 2-1.12 0-2-0.9-2-2s0.88-2 2-2c1.1 0 2 0.9 2 2zm8.05 0c0 1.1-0.9 2-2 2s-2-0.9-2-2 0.9-2 2-2 2 0.9 2 2zm8.06 0c0 1.1-0.88 2-2 2-1.1 0-2-0.9-2-2s0.9-2 2-2c1.12 0 2 0.9 2 2zm8.08 0c0 1.1-0.9 2-2 2s-2-0.9-2-2 0.9-2 2-2 2 0.9 2 2zm8.06 0c0 1.1-0.9 2-2 2s-2-0.9-2-2 0.9-2 2-2 2 0.9 2 2zm8.06 0c0 1.1-0.9 2-2 2s-2-0.9-2-2 0.9-2 2-2 2 0.9 2 2zm8.06 0c0 1.1-0.9 2-2 2s-2-0.9-2-2 0.9-2 2-2 2 0.9 2 2zm8.07 0c0 1.1-0.9 2-2 2s-2-0.9-2-2 0.9-2 2-2 2 0.9 2 2zm8.06 0c0 1.1-0.9 2-2 2-1.12 0-2-0.9-2-2s0.88-2 2-2c1.1 0 2 0.9 2 2zm8.05 0c0 1.1-0.9 2-2 2s-2-0.9-2-2 0.9-2 2-2 2 0.9 2 2zm8.06 0c0 1.1-0.88 2-2 2-1.1 0-2-0.9-2-2s0.9-2 2-2c1.12 0 2 0.9 2 2zm8.08 0c0 1.1-0.9 2-2 2s-2-0.9-2-2 0.9-2 2-2 2 0.9 2 2zm8.06 0c0 1.1-0.9 2-2 2s-2-0.9-2-2 0.9-2 2-2 2 0.9 2 2zm8.06 0c0 1.1-0.9 2-2 2s-2-0.9-2-2 0.9-2 2-2 2 0.9 2 2zm8.06 0c0 1.1-0.9 2-2 2s-2-0.9-2-2 0.9-2 2-2 2 0.9 2 2zm8.07 0c0 1.1-0.9 2-2 2s-2-0.9-2-2 0.9-2 2-2 2 0.9 2 2zm8.06 0c0 1.1-0.9 2-2 2-1.12 0-2-0.9-2-2s0.88-2 2-2c1.1 0 2 0.9 2 2zm8.05 0c0 1.1-0.9 2-2 2s-2-0.9-2-2 0.9-2 2-2 2 0.9 2 2zm8.06 0c0 1.1-0.88 2-2 2-1.1 0-2-0.9-2-2s0.9-2 2-2c1.12 0 2 0.9 2 2zm8.08 0c0 1.1-0.9 2-2 2s-2-0.9-2-2 0.9-2 2-2 2 0.9 2 2zm8.06 0c0 1.1-0.9 2-2 2s-2-0.9-2-2 0.9-2 2-2 2 0.9 2 2zm8.06 0c0 1.1-0.9 2-2 2s-2-0.9-2-2 0.9-2 2-2 2 0.9 2 2zm7.5 2c0 1.1-0.9 2-2 2s-2-0.9-2-2 0.9-2 2-2 2 0.9 2 2zm5.5 5.5c0 1.1-0.9 2-2 2s-2-0.9-2-2 0.9-2 2-2 2 0.9 2 2zm2 7.5c0 1.1-0.9 2-2 2s-2-0.9-2-2 0.9-2 2-2 2 0.9 2 2zm0 8.18c0 1.1-0.9 2-2 2s-2-0.9-2-2 0.9-2 2-2 2 0.9 2 2zm0 8.18c0 1.1-0.9 2-2 2s-2-0.9-2-2 0.9-2 2-2 2 0.9 2 2zm0 8.2c0 1.1-0.9 2-2 2s-2-0.9-2-2c0-1.12 0.9-2 2-2s2 0.88 2 2zm0 8.17c0 1.1-0.9 2-2 2s-2-0.9-2-2 0.9-2 2-2 2 0.9 2 2zm0 8.18c0 1.1-0.9 2-2 2s-2-0.9-2-2 0.9-2 2-2 2 0.9 2 2zm0 8.2c0 1.1-0.9 2-2 2s-2-0.9-2-2 0.9-2 2-2 2 0.9 2 2zm0 8.17c0 1.1-0.9 2-2 2s-2-0.9-2-2 0.9-2 2-2 2 0.9 2 2zm0 8.18c0 1.1-0.9 2-2 2s-2-0.9-2-2 0.9-2 2-2 2 0.9 2 2zm0 8.2c0 1.1-0.9 2-2 2s-2-0.9-2-2c0-1.12 0.9-2 2-2s2 0.88 2 2zm0 8.17c0 1.1-0.9 2-2 2s-2-0.9-2-2 0.9-2 2-2 2 0.9 2 2zm0 8.18c0 1.1-0.9 2-2 2s-2-0.9-2-2 0.9-2 2-2 2 0.9 2 2zm-2 7.5c0 1.1-0.9 2-2 2s-2-0.9-2-2 0.9-2 2-2 2 0.9 2 2zm-5.5 5.5c0 1.1-0.9 2-2 2s-2-0.9-2-2 0.9-2 2-2 2 0.9 2 2zm-7.5 2c0 1.1-0.9 2-2 2s-2-0.9-2-2 0.9-2 2-2 2 0.9 2 2zm-8.06 0c0 1.1-0.9 2-2 2s-2-0.9-2-2 0.9-2 2-2 2 0.9 2 2zm-8.07 0c0 1.1-0.9 2-2 2s-2-0.9-2-2 0.9-2 2-2 2 0.9 2 2zm-8.06 0c0 1.1-0.88 2-2 2-1.1 0-2-0.9-2-2s0.9-2 2-2c1.12 0 2 0.9 2 2zm-8.05 0c0 1.1-0.9 2-2 2s-2-0.9-2-2 0.9-2 2-2 2 0.9 2 2zm-8.06 0c0 1.1-0.9 2-2 2-1.12 0-2-0.9-2-2s0.88-2 2-2c1.1 0 2 0.9 2 2zm-8.08 0c0 1.1-0.9 2-2 2s-2-0.9-2-2 0.9-2 2-2 2 0.9 2 2zm-8.06 0c0 1.1-0.9 2-2 2s-2-0.9-2-2 0.9-2 2-2 2 0.9 2 2zm-8.06 0c0 1.1-0.9 2-2 2s-2-0.9-2-2 0.9-2 2-2 2 0.9 2 2zm-8.06 0c0 1.1-0.9 2-2 2s-2-0.9-2-2 0.9-2 2-2 2 0.9 2 2zm-8.07 0c0 1.1-0.9 2-2 2s-2-0.9-2-2 0.9-2 2-2 2 0.9 2 2zm-8.06 0c0 1.1-0.88 2-2 2-1.1 0-2-0.9-2-2s0.9-2 2-2c1.12 0 2 0.9 2 2zm-8.05 0c0 1.1-0.9 2-2 2s-2-0.9-2-2 0.9-2 2-2 2 0.9 2 2zm-8.06 0c0 1.1-0.9 2-2 2-1.12 0-2-0.9-2-2s0.88-2 2-2c1.1 0 2 0.9 2 2zm-8.08 0c0 1.1-0.9 2-2 2s-2-0.9-2-2 0.9-2 2-2 2 0.9 2 2zm-8.06 0c0 1.1-0.9 2-2 2s-2-0.9-2-2 0.9-2 2-2 2 0.9 2 2zm-8.06 0c0 1.1-0.9 2-2 2s-2-0.9-2-2 0.9-2 2-2 2 0.9 2 2zm-8.06 0c0 1.1-0.9 2-2 2s-2-0.9-2-2 0.9-2 2-2 2 0.9 2 2zm-8.07 0c0 1.1-0.9 2-2 2s-2-0.9-2-2 0.9-2 2-2 2 0.9 2 2zm-8.06 0c0 1.1-0.88 2-2 2-1.1 0-2-0.9-2-2s0.9-2 2-2c1.12 0 2 0.9 2 2zm-8.05 0c0 1.1-0.9 2-2 2s-2-0.9-2-2 0.9-2 2-2 2 0.9 2 2zm-8.06 0c0 1.1-0.9 2-2 2-1.12 0-2-0.9-2-2s0.88-2 2-2c1.1 0 2 0.9 2 2zm-8.08 0c0 1.1-0.9 2-2 2s-2-0.9-2-2 0.9-2 2-2 2 0.9 2 2zm-8.06 0c0 1.1-0.9 2-2 2s-2-0.9-2-2 0.9-2 2-2 2 0.9 2 2zm-8.06 0c0 1.1-0.9 2-2 2s-2-0.9-2-2 0.9-2 2-2 2 0.9 2 2zm-8.06 0c0 1.1-0.9 2-2 2s-2-0.9-2-2 0.9-2 2-2 2 0.9 2 2zm-8.06 0c0 1.1-0.9 2-2 2s-2-0.9-2-2 0.9-2 2-2 2 0.9 2 2zm-8.07 0c0 1.1-0.88 2-2 2-1.1 0-2-0.9-2-2s0.9-2 2-2c1.12 0 2 0.9 2 2zm-8.05 0c0 1.1-0.9 2-2 2s-2-0.9-2-2 0.9-2 2-2 2 0.9 2 2zm-8.06 0c0 1.1-0.9 2-2 2-1.12 0-2-0.9-2-2s0.88-2 2-2c1.1 0 2 0.9 2 2zm-8.07 0c0 1.1-0.9 2-2 2s-2-0.9-2-2 0.9-2 2-2 2 0.9 2 2zm-8.07 0c0 1.1-0.9 2-2 2s-2-0.9-2-2 0.9-2 2-2 2 0.9 2 2zm-8.06 0c0 1.1-0.9 2-2 2s-2-0.9-2-2 0.9-2 2-2 2 0.9 2 2zm-7.5-2c0 1.1-0.9 2-2 2s-2-0.9-2-2 0.9-2 2-2 2 0.9 2 2zm-5.5-5.5c0 1.1-0.9 2-2 2s-2-0.9-2-2 0.9-2 2-2 2 0.9 2 2zm-2-7.5c0 1.1-0.9 2-2 2s-2-0.9-2-2 0.9-2 2-2 2 0.9 2 2zm0-8.18c0 1.1-0.9 2-2 2s-2-0.9-2-2 0.9-2 2-2 2 0.9 2 2zm0-8.18c0 1.1-0.9 2-2 2s-2-0.9-2-2 0.9-2 2-2 2 0.9 2 2zm0-8.2c0 1.12-0.9 2-2 2s-2-0.88-2-2c0-1.1 0.9-2 2-2s2 0.9 2 2zm0-8.17c0 1.1-0.9 2-2 2s-2-0.9-2-2 0.9-2 2-2 2 0.9 2 2zm0-8.18c0 1.1-0.9 2-2 2s-2-0.9-2-2 0.9-2 2-2 2 0.9 2 2zm0-8.2c0 1.1-0.9 2-2 2s-2-0.9-2-2 0.9-2 2-2 2 0.9 2 2zm0-8.17c0 1.1-0.9 2-2 2s-2-0.9-2-2 0.9-2 2-2 2 0.9 2 2zm0-8.18c0 1.1-0.9 2-2 2s-2-0.9-2-2 0.9-2 2-2 2 0.9 2 2zm0-8.2c0 1.12-0.9 2-2 2s-2-0.88-2-2c0-1.1 0.9-2 2-2s2 0.9 2 2zm0-8.17c0 1.1-0.9 2-2 2s-2-0.9-2-2 0.9-2 2-2 2 0.9 2 2z"/>
  </g>
 </g>
 <g id="layer10">
  <path id="path4790" d="m236.8 150 3.78-0.44 3.44-0.25 3.17-0.07 2.93 0.06 2.75 0.17 2.6 0.3 2.48 0.38 2.37 0.48 2.3 0.58 2.22 0.68 2.18 0.77 2.16 0.87 2.13 1 2.15 1.1 2.18 1.24 2.23 1.42 2.3 1.62 2.43 1.88 2.6 2.2 2.86 2.66 3.28 3.35 4.06 4.52 6.25 7.68 22.5 28.84 5.7 6.34 4.97 5.08 4.66 4.32 4.48 3.8 2.67 2.1 2.87 2.1 3.05 2.03 3.25 2 3.5 1.93 3.76 1.88 4.1 1.85 4.45 1.78 4.9 1.72 5.44 1.66 6.1 1.6 6.94 1.5 8.02 1.38 9.5 1.22 11.65 1 15.24 0.68 23.6-0.01 72-2" transform="translate(-80,-32)"  stroke-width="2"  class="stroke-586e75 fill-none"/>
  <g class="fill-586e75">
   <path id="path4792" transform="translate(-80,-32)" d="m251.25 154.05-14.45-4.05l14.07-5.2z"/>
   <path id="path4794" transform="translate(-80,-32)" d="m252.3 155.4-14.7-4.14-1.34-2.13 15.55-5.76zm-12.26-5.53 10.15 2.85-0.27-6.5zm294.96 105.13l-14.13 5.03-0.26-9.27z"/>
   <path id="path4796" transform="translate(-80,-32)" d="m538.23 254.9-18.32 6.54-0.33-12.02zm-16.4 3.73 9.94-3.54-10.12-3z"/>
  </g>
 </g>
 <g id="layer11">
  <path id="path4698" class="fill-39474b" transform="translate(-80,-32)" d="m573.52 248.9 13.74-1.04v-16.86l-13.74 3.5v14.4z"/>
  <path id="path4700" class="fill-586e75" transform="translate(-80,-32)" d="m578.86 246.74-14.28-2.03v-24.71l14.28 7v19.74zm15.54 2.16-7.14-0.97v-16.93l7.14 3.5v14.4z"/>
  <path id="path4702" class="fill-273134" transform="translate(-80,-32)" d="m573.52 248.9 13.56-1.04 7.32 1.05-13.14 0.78-7.74-0.77z"/>
  <path id="path4704" class="fill-39474b" transform="translate(-80,-32)" d="m573.52 260.8 13.74 1.06v16.87l-13.74-3.5v-14.43z"/>
  <path id="path4706" class="fill-586e75" transform="translate(-80,-32)" d="m578.86 262.98-14.28 2.02v24.72l14.28-7v-19.74zm15.36-2.18-7.14 1v16.93l7.14-3.5v-14.43z"/>
  <path id="path4708" class="fill-93a1a6" transform="translate(-80,-32)" d="m573.52 260.8 13.56 1 7.32-1-13.14-0.76-7.74 0.77z"/>
  <path id="path4710" class="fill-586e75" transform="translate(-80,-32)" d="m555.76 248.9-13.74-1.04v-16.86l13.74 3.5v14.4z"/>
  <path id="path4712" class="fill-39474b" transform="translate(-80,-32)" d="m550.36 246.74 14.34-2.03v-24.71l-14.34 7v19.74zm-15.36 2.16 7.14-0.97v-16.93l-7.14 3.5v14.4z"/>
  <path id="path4714" class="fill-273134" transform="translate(-80,-32)" d="m555.88 248.9-13.56-1.04-7.32 1.05 13.14 0.78 7.74-0.77z"/>
  <path id="path4716" class="fill-586e75" transform="translate(-80,-32)" d="m555.76 260.8-13.74 1.06v16.87l13.74-3.5v-14.43z"/>
  <path id="path4718" class="fill-39474b" transform="translate(-80,-32)" d="m550.36 262.98 14.34 2.02v24.72l-14.34-7v-19.74zm-15.36-2.18l7.14 1v16.93l-7.14-3.5v-14.43z"/>
  <path id="path4720" class="fill-93a1a6" transform="translate(-80,-32)" d="m555.88 260.8-13.56 1-7.32-1 13.14-0.76 7.74 0.77zm23.1 2.18-14.28-1.4-14.34 1.4 14.34 2.02 14.28-2.02z"/>
  <path id="path4722" class="fill-273134" transform="translate(-80,-32)" d="m578.98 246.74-14.28 1.33-14.34-1.33 14.34-2.03 14.28 2.04z"/>
 </g>
 <g id="layer12">
  <path id="path4746" d="m440 302h80v30h-80z" stroke-opacity="0" transform="translate(-80,-32)" class="fill-586e75"/>
  <use id="use4748" xlink:href="#e" transform="translate(397.5,289.4)" height="100%" width="100%" y="0" x="0"/>
 </g>
 <g id="layer13">
  <path id="path4750" d="m525 302h80v30h-80z" stroke-opacity="0" transform="translate(-80,-32)" class="fill-586e75"/>
  <use id="use4752" xlink:href="#f" transform="translate(451.05,289.4)" height="100%" width="100%" y="0" x="0"/>
 </g>
 <g id="layer22">
  <g class="fill-39474b">
   <path id="path4758" transform="translate(-80,-32)" d="m627.63 534.88c-0.1-0.24-0.13-0.48-0.13-0.72l0.13 0.72zm44.51 0 0.13-0.72c0 0.24-0.04 0.48-0.13 0.72z"/>
   <path id="path4760" transform="translate(-80,-32)" d="m672.27 531.64v2.52l-0.13 0.72v-2.46l0.13-0.78zm-44.64 0.78v2.46l-0.13-0.72v-2.52l0.13 0.78zm44.64-5.52v2.46c0 3.84-10.03 6.9-22.4 6.9-12.34 0-22.37-3.06-22.37-6.9v-2.46c0 3.78 10.03 6.9 22.37 6.9 12.37 0 22.4-3.12 22.4-6.9z"/>
   <path id="path4762" transform="translate(-80,-32)" d="m672.27 526.9v2.46c0 0.12 0 0.18-0.04 0.3v-2.52c0.04-0.06 0.04-0.18 0.04-0.24m-0.04 0.24v2.52c0 0.12 0 0.18-0.05 0.3v-2.52c0.05-0.06 0.05-0.18 0.05-0.3m-0.05 0.3v2.52c-0.04 0.12-0.08 0.3-0.13 0.42v-2.46c0.05-0.18 0.1-0.3 0.13-0.48m-0.13 0.48v2.46c-1.62 3.36-10.93 5.88-22.18 5.88-12.34 0-22.37-3.06-22.37-6.9v-2.46c0 3.78 10.03 6.9 22.37 6.9 11.25 0 20.56-2.58 22.18-5.88"/>
  </g>
  <path id="path4764" class="fill-586e75" transform="translate(-80,-32)" d="m649.87 520c12.37 0 22.4 3.06 22.4 6.9 0 3.78-10.03 6.9-22.4 6.9-12.34 0-22.37-3.12-22.37-6.9 0-3.84 10.03-6.9 22.37-6.9z"/>
  <g class="fill-39474b">
   <path id="path4766" transform="translate(-80,-32)" d="m672.14 532.42v2.46l-7.34 40.92v-2.46l7.34-40.92zm-37.17 40.92v2.46l-7.34-40.92v-2.46l7.34 40.92zm29.83 0v2.46c0 2.58-6.65 4.62-14.93 4.62-8.24 0-14.9-2.04-14.9-4.62v-2.46c0 2.52 6.66 4.56 14.9 4.56 8.27 0 14.93-2.04 14.93-4.56zv2.64-2.46-0.18"/>
   <path id="path4768" transform="translate(-80,-32)" d="m664.8 573.52v2.46c0 0.12-0.04 0.18-0.04 0.24v-2.52c0-0.06 0.04-0.12 0.04-0.18m-0.04 0.18v2.52c-0.04 0.12-0.04 0.18-0.1 0.3v-2.52c0.06-0.06 0.06-0.18 0.1-0.3"/>
   <path id="path4770" transform="translate(-80,-32)" d="m664.67 574v2.52c-1.08 2.22-7.3 3.9-14.8 3.9-8.24 0-14.9-2.04-14.9-4.62v-2.46c0 2.52 6.66 4.56 14.9 4.56 7.5 0 13.72-1.68 14.8-3.9"/>
  </g>
  <path id="path4772" class="fill-586e75" transform="translate(-80,-32)" d="m649.87 538.54c11.5 0 21-2.7 22.27-6.12l-7.34 40.92c0 2.52-6.65 4.56-14.93 4.56-8.24 0-14.9-2.04-14.9-4.56l-7.34-40.92c1.26 3.42 10.72 6.12 22.24 6.12z"/>
  <path id="path4774" class="fill-e15343" transform="translate(-80,-32)" d="m672.32 532.06c0.04 0.06 0.04 0.06 0.04 0.12v-0.06s0-0.06-0.04-0.06zm0-0.12c0-0.06-0.05-0.12-0.05-0.18 0 0.06 0.05 0.12 0.05 0.18z"/>
  <use id="use4776" xlink:href="#h" transform="translate(559.14 562.22)" height="100%" width="100%" y="0" x="0"/>
 </g>
 <g id="layer19">
  <path id="path4822" d="m650 332v188" transform="translate(-80,-32)"  stroke-width="2"  class="stroke-586e75 fill-none"/>
  <g class="fill-586e75">
   <path id="path4824" transform="translate(-80,-32)" d="m654.64 346.27h-9.28l4.64-14.27z"/>
   <path id="path4826" transform="translate(-80,-32)" d="m656 347.27h-12l4.95-15.27h2.1zm-9.26-2h6.52l-3.26-10.03zm3.26 174.73l-4.64-14.25h9.28z"/>
   <path id="path4828" transform="translate(-80,-32)" d="m651.02 520.12-1.15-0.12h-0.44l-0.47 0.05-4.97-15.3h12zm-4.28-13.37 3.26 10.03 3.26-10.03z"/>
  </g>
 </g>
 <g id="layer18">
  <g stroke-opacity="0">
   <path id="path4614" d="m586.54 431.24 8.46-17.46-14.58-0.48-9.42 0.48 15.54 17.46z" transform="translate(-80,-32)" class="fill-93a1a6"/>
   <path id="path4616" d="m586.54 388.94 8.46 17.58-14.58 0.48-9.42-0.48 15.54-17.58zm-43.08 0.06-8.46 17.46 14.58 0.54 9.42-0.48-15.54-17.52z" transform="translate(-80,-32)" class="fill-273134"/>
   <path id="path4618" d="m543.46 431.24-8.46-17.46 14.58-0.48 9.42 0.48-15.54 17.46z" transform="translate(-80,-32)" class="fill-93a1a6"/>
   <path id="path4620" d="m586.54 388.94v16.86l8.46 0.72v-14.04l-8.46-3.54z" transform="translate(-80,-32)" class="fill-586e75"/>
   <path id="path4622" d="m571 406.52v-14.04l15.54-3.54v16.86l-15.54 0.72z" transform="translate(-80,-32)" class="fill-3f4f54"/>
   <path id="path4624" d="m565 399.44v-9l16.92 4.56v6.9l-16.92-2.46z" transform="translate(-80,-32)" class="fill-586e75"/>
   <path id="path4626" d="m574.42 402.56-16.98-1.98 7.62-1.14 16.86 2.46-7.5 0.66z" transform="translate(-80,-32)" class="fill-273134"/>
   <path id="path4628" d="m543.46 388.94v16.86l-8.46 0.66v-14.1l8.46-3.42z" transform="translate(-80,-32)" class="fill-3f4f54"/>
   <path id="path4630" d="m559 406.52v-14.04l-15.54-3.54v16.86l15.54 0.72z" transform="translate(-80,-32)" class="fill-586e75"/>
   <path id="path4632" d="m565 399.44v-9l-16.92 4.56v6.9l16.92-2.46z" transform="translate(-80,-32)" class="fill-3f4f54"/>
   <path id="path4634" d="m555.58 402.56 16.98-1.98-7.62-1.14-16.86 2.46 7.5 0.66z" transform="translate(-80,-32)" class="fill-273134"/>
   <path id="path4636" d="m586.54 431.24v-16.8l8.46-0.66v13.98l-8.46 3.48z" transform="translate(-80,-32)" class="fill-586e75"/>
   <path id="path4638" d="m571 413.78v14.04l15.54 3.42v-16.8l-15.54-0.66z" transform="translate(-80,-32)" class="fill-3f4f54"/>
   <path id="path4640" d="m565 420.8v9l16.92-4.5v-7.02l-16.92 2.52z" transform="translate(-80,-32)" class="fill-586e75"/>
   <path id="path4642" d="m574.42 417.62-16.98 2.04 7.62 1.14 16.86-2.52-7.5-0.66z" transform="translate(-80,-32)" class="fill-93a1a6"/>
   <path id="path4644" d="m543.46 431.24v-16.8l-8.46-0.66v13.98l8.46 3.48z" transform="translate(-80,-32)" class="fill-3f4f54"/>
   <path id="path4646" d="m559 413.78v14.04l-15.54 3.42v-16.8l15.54-0.66z" transform="translate(-80,-32)" class="fill-586e75"/>
   <path id="path4648" d="m565 420.8v9l-16.92-4.5v-7.02l16.92 2.52z" transform="translate(-80,-32)" class="fill-3f4f54"/>
   <path id="path4650" d="m555.58 417.62 16.98 2.04-7.62 1.14-16.86-2.52 7.5-0.66z" transform="translate(-80,-32)" class="fill-93a1a6"/>
   <path id="path4652" d="m574 383.72-9-3.72-9 3.72v52.56l9 3.72 5.04-2.1 3.96-54.18z" transform="translate(-80,-32)" class="fill-3f4f54"/>
   <path id="path4654" d="m574 383.72v52.56l-9 3.72v-60l9 3.72z" transform="translate(-80,-32)" class="fill-586e75"/>
  </g>
  <use id="use4656" xlink:href="#b" transform="translate(470.02 422.4)" height="100%" width="100%" y="0" x="0"/>
 </g>
 <g id="layer17">
  <g stroke-opacity="0">
   <path id="path4724" d="m461.16 392.36-7.32-1.5v38.28l7.32-1.38zm14.28 37.86-11.46 3.12v-46.74l11.46 3.06z" transform="translate(-80,-32)" class="fill-586e75"/>
   <path id="path4726" d="m483.72 395.24 5.22-2.22 17.46 5.58-4.68 0.48z" transform="translate(-80,-32)" class="fill-273134"/>
   <path id="path4728" d="m483.9 424.76 5.16 2.22 17.4-5.58-4.62-0.48z" transform="translate(-80,-32)" class="fill-93a1a6"/>
   <path id="path4730" d="m485.22 418.58 9.18 1.02v-19.2l-9.18 1.02z" transform="translate(-80,-32)" class="fill-39474b"/>
  </g>
  <g stroke-opacity="0" class="fill-586e75">
   <path id="path4732" d="m488.94 436.28-8.94 3.72v-60l8.94 3.78z" transform="translate(-80,-32)"/>
   <path id="path4734" d="m510 420.56-30 7.44v12l30-12.42z" transform="translate(-80,-32)"/>
   <path id="path4736" d="m506.16 390.86 3.84 1.56v35.16l-3.84 1.56z" transform="translate(-80,-32)"/>
   <path id="path4738" d="m480 392 30 7.44v-7.02l-30-12.42z" transform="translate(-80,-32)"/>
  </g>
  <path id="path4740" d="m471.06 436.28 8.94 3.72v-60l-8.94 3.78zm-12.72-47.34 5.64-2.34v46.8l-5.64-2.34zm-8.34 38.64 3.84 1.56v-38.28l-3.84 1.56zm51.54-28.5 4.62-0.48v22.92l-4.62-0.54z" stroke-opacity="0" transform="translate(-80,-32)" class="fill-39474b"/>
  <path id="path4742" d="m494.4 400.4v19.26l9.54-9.66z" stroke-opacity="0" transform="translate(-80,-32)" class="fill-586e75"/>
  <use id="use4744" xlink:href="#d" transform="translate(385,422.4)" height="100%" width="100%" y="0" x="0"/>
 </g>
 <g id="layer15">
  <path id="path4814" d="m480 332v48" transform="translate(-80,-32)"  stroke-width="2"  class="stroke-586e75 fill-none"/>
  <g class="fill-586e75">
   <path id="path4816" transform="translate(-80,-32)" d="m484.64 346.27h-9.28l4.64-14.27z"/>
   <path id="path4818" transform="translate(-80,-32)" d="m486 347.27h-12l4.95-15.27h2.1zm-9.26-2h6.52l-3.26-10.03zm3.26 34.73l-4.64-14.27h9.28z"/>
   <path id="path4820" transform="translate(-80,-32)" d="m479.08 380.4-5.1-15.67h12.03l-5.07 15.65-0.93-0.38 0.92 0.4-0.92 2.84v-3.24zm-2.34-13.67 3.26 10.03 3.26-10.03z"/>
  </g>
 </g>
 <g id="layer16">
  <path id="path4806" d="m565 332v48" transform="translate(-80,-32)"  stroke-width="2"  class="stroke-586e75 fill-none"/>
  <g class="fill-586e75">
   <path id="path4808" transform="translate(-80,-32)" d="m569.64 346.27h-9.28l4.64-14.27z"/>
   <path id="path4810" transform="translate(-80,-32)" d="m571 347.27h-12l4.95-15.27h2.1zm-9.26-2h6.52l-3.26-10.03zm3.26 34.73l-4.64-14.27h9.28z"/>
   <path id="path4812" transform="translate(-80,-32)" d="m565 380-0.93 0.38-5.08-15.65h12l-5.07 15.65-0.93 2.86zm-3.26-13.27 3.26 10.03 3.26-10.03z"/>
  </g>
 </g>
 <g id="layer4">
  <path id="path4838" d="m236.8 150 10.6-6.3 9.36-5.07 8.53-4.15 7.97-3.48 7.65-2.96 7.5-2.55 7.54-2.22 7.8-1.93 8.28-1.7 9.18-1.46 10.79-1.28 14.03-1.05 24.37-0.76 24.6-0.1" transform="translate(-80,-32)"  stroke-width="2"  class="stroke-586e75 fill-none"/>
  <g class="fill-586e75">
   <path id="path4844" d="m397.52 114.76-0.22 0.53-17.54 5.78-0.05-12.02zm-15.77 3.56 10-3.3-10.03-3.22z" transform="translate(-80,-32)" display="none"/>
   <path id="path4842" transform="translate(-80,-32)" d="m253 147.47-15.63 3.43-1.12-1.78 10.7-12.02zm-13.4 0.9 10.3-2.26-3.3-5.62zm155.4-33.37l-14.24 4.7-0.05-9.27z"/>
   <path id="path4840" transform="translate(-80,-32)" d="m251.46 146.8-14.66 3.2 9.97-11.2z"/>
  </g>
 </g>
 <g id="layer3">
  <path id="path4604" class="fill-39474b" transform="translate(-80,-32)" d="m240.4 163.08v3.36c-0.08 0.66-0.16 1.32-0.4 1.98v-3.42c0.24-0.66 0.32-1.32 0.4-1.92m-0.4 1.92v3.42c-0.24 0.78-0.56 1.62-0.88 2.4v-3.42c0.32-0.78 0.64-1.56 0.88-2.4m-0.88 2.4v3.42c-2.56 5.28-8.24 9.48-14.88 9.48v-3.42c6.64 0 12.32-4.2 14.88-9.48m-14.88 9.48v3.42h-48l-1.28-4.68 49.28 1.26z"/>
  <path id="path4610" class="fill-586e75" transform="translate(-80,-32)" d="m190.96 120c8.4 0 15.6 5.64 18.8 13.8 1.68-1.32 3.68-2.1 5.92-2.1 5.68 0 10.24 5.1 10.4 11.46 8.16 0.78 14.4 9.72 14.4 16.8v1.56c0 7.62-7.28 15.36-16.24 15.36h-48c-8.96 0-16.24-7.74-16.24-15.36v-1.56c0-5.88 4.32-13.98 10.4-15.96v-0.72c0-12.84 9.2-23.28 20.56-23.28z"/>
  <g class="fill-39474b">
   <path id="path4600" transform="translate(-80,-32)" d="m240.48 161.52v3.36c0 7.68-7.28 15.42-16.24 15.42v-3.42c8.96 0 16.24-7.74 16.24-15.36z"/>
   <path id="path4608" transform="translate(-80,-32)" d="m176.24 176.88v3.42c-8.96 0-16.24-7.74-16.24-15.42v-3.36c0 7.62 7.28 15.36 16.24 15.36"/>
   <path id="path4606" transform="translate(-80,-32)" d="m176.24 176.88v3.42c-8.96 0-16.24-7.74-16.24-15.42v-3.36c0 7.62 7.28 15.36 16.24 15.36z"/>
  </g>
 </g>
 <g id="layer2">
  <path id="path4798" d="m113.12 150h50.27" transform="translate(-80,-32)"  stroke-width="2"  class="stroke-586e75 fill-none"/>
  <g class="fill-586e75">
   <path id="path4800" transform="translate(-80,-32)" d="m127.4 154.64-14.3-4.64 14.27-4.64z"/>
   <path id="path4802" transform="translate(-80,-32)" d="m128.4 156-11.9-3.85-2.15-1.65-2.66-1.1 16.7-5.4zm-12.04-6 10.03 3.26v-6.52zm47.04 0-14.28 4.64v-9.28z"/>
   <path id="path4804" transform="translate(-80,-32)" d="m164.03 149.16-1.38 1.8-0.15 0.38-14.38 4.67v-12zm-13.9 4.1 10.02-3.26-10.03-3.26z"/>
  </g>
 </g>
 <g id="layer1">
  <path id="path4570" class="fill-586e75" transform="translate(-80,-32)" d="m100.2 120c6.48 0 11.76 5.64 11.76 12.54s-5.28 12.48-11.76 12.48c-6.52 0-11.8-5.58-11.8-12.48s5.28-12.54 11.8-12.54z"/>
  <path id="path4580" class="fill-586e75" transform="translate(-80,-32)" d="m106.92 148.62c7.44 0 13.44 4.8 13.44 12.72v15.9h-7.76v-11.16h-1.32v11.16h-21.92v-11.16h-1.32v11.16h-8.04v-15.9c0-7.92 6-12.72 13.44-12.72h13.48z"/>
  <g class="fill-39474b">
   <path id="path4582" d="m112.6 177.24h7.76v2.7h-7.76v-2.7m-23.24 0h21.92v2.7h-21.92v-2.7m-9.36 0h8.04v2.7h-8.04v-2.7m359.55-66.94v-2.05c0-4.7 3.25-8.65 3.45-8.9v2.05c-0.2 0.2-3.45 4.15-3.45 8.9z" transform="translate(-80,-32)"/>
   <path id="path4578" transform="translate(-80,-32)" d="m111.4 136.32v2.7c-0.24 0.78-0.52 1.5-0.88 2.22v-2.7c0.36-0.72 0.64-1.44 0.88-2.22m-0.88 2.22v2.7c-2 3.84-5.88 6.48-10.32 6.48-6.52 0-11.8-5.58-11.8-12.48v-2.7c0 6.9 5.28 12.48 11.8 12.48 4.44 0 8.32-2.64 10.32-6.48m0.76 27.54h1.32v2.7h-1.32v-2.7m-23.24 0h1.32v2.7h-1.32v-2.7z"/>
   <path id="path4572" transform="translate(-80,-32)" d="m111.96 132.54v2.7c0 6.9-5.28 12.48-11.76 12.48-6.52 0-11.8-5.58-11.8-12.48v-2.7c0 6.9 5.28 12.48 11.8 12.48 6.48 0 11.76-5.58 11.76-12.48z"/>
   <path id="path4576" transform="translate(-80,-32)" d="m111.84 134.28v2.7c-0.08 0.72-0.24 1.38-0.44 2.04l-0.44-2.22c0.2-0.66 0.8-1.8 0.88-2.52"/>
  </g>
 </g>
 <g id="layer6">
  <path id="path4694" d="m371.04 32c8.32 0 15.52 4.56 18.72 11.04 1.68-1.06 3.76-1.68 5.92-1.68 5.68 0 10.24 4.08 10.4 9.17 8.16 0.62 14.48 7.77 14.48 13.44v1.25c0 6.1-7.28 12.28-16.32 12.28h-47.92c-9.04 0-16.32-6.2-16.32-12.28v-1.25c0-4.7 4.32-11.2 10.48-12.77-0.08-0.2-0.08-0.34-0.08-0.53 0-10.32 9.2-18.67 20.56-18.67z" transform="translate(-80,-32)" class="fill-586e75"/>
  <path id="path4696" class="fill-002b36" transform="translate(-80,-32)" d="m360.16 53.84-5.36 17.18h3.2l1.2-4.22h5.52l1.2 4.22h3.12l-4.96-17.18h-3.92m-0.4 10.75 2.24-8.46h0.08l2.16 8.45h-4.48m22.8 2.65h-0.08l-2.48-13.4h-3.2l-2.48 13.35h-0.08l-2.48-13.34h-3.04l3.6 17.18h3.52l2.4-12.96h0.08l2.48 12.96h3.44l3.76-17.18h-2.96l-2.48 13.4m15.2-5.62-2.08-0.68c-2-0.67-2.8-1.44-2.8-2.88 0-1.82 1.2-2.5 2.56-2.5 1.84 0 2.64 0.92 2.64 2.5v0.34h3.04v-0.38c0-1.78-0.56-4.52-5.36-4.52-3.6 0-5.92 1.73-5.92 4.85 0 2.45 1.2 3.75 3.92 4.7l2.08 0.68c1.76 0.43 2.72 1.25 2.72 3.02 0 1.3-0.96 2.55-2.88 2.55-2.08 0-3.04-1.1-3.04-3.17v-0.43h-3.04v0.38c0 2.4 1.04 5.28 5.76 5.28 3.76 0 6.24-1.54 6.24-5.18 0-2.36-1.2-3.7-3.84-4.56z"/>
  <g class="fill-39474b">
   <path id="path4684" transform="translate(-80,-32)" d="m420.56 65.22v2.73c0 6.1-7.28 12.3-16.32 12.3v-2.75c9.04 0 16.32-6.2 16.32-12.28z"/>
   <path id="path4686" transform="translate(-80,-32)" d="m420.56 65.22v2.73c0 0.43 0 0.82-0.08 1.25v-2.74c0.08-0.43 0.08-0.8 0.08-1.24m-0.08 1.24v2.74c-0.08 0.53-0.24 1-0.4 1.54v-2.74c0.16-0.48 0.32-1 0.4-1.54m-0.4 1.54v2.74c-0.24 0.67-0.56 1.3-0.96 1.96v-2.73c0.4-0.63 0.72-1.3 0.96-1.97m-0.96 1.97v2.73c-2.56 4.18-8.24 7.54-14.88 7.54v-2.74c6.64 0 12.32-3.36 14.88-7.53"/>
   <path id="path4688" transform="translate(-80,-32)" d="m405.04 77.02-0.8 3.22h-47.92l-0.88-3.22h49.6z"/>
   <path id="path4692" transform="translate(-80,-32)" d="m356.32 77.5v2.74c-9.04 0-16.32-6.2-16.32-12.3v-2.72c0 6.1 7.28 12.28 16.32 12.28"/>
   <path id="path4690" transform="translate(-80,-32)" d="m356.32 77.5v2.74c-9.04 0-16.32-6.2-16.32-12.3v-2.72c0 6.1 7.28 12.28 16.32 12.28z"/>
  </g>
 </g>
 <g id="layer7">
  <g class="fill-39474b">
   <path id="path4584" transform="translate(-80,-32)" d="m443 99.35v2.05c-0.1 0.1-0.9 1.1-1.7 2.6v-2c0.8-1.55 1.6-2.55 1.7-2.65m-1.7 2.65v2c-0.45 0.8-0.85 1.75-1.2 2.75v-2c0.35-1.05 0.75-1.95 1.2-2.75m-1.2 2.75v2c-0.2 0.65-0.35 1.35-0.45 2.05v-2.05c0.1-0.7 0.25-1.35 0.45-2m-0.45 2v2.05c-0.05 0.45-0.1 0.95-0.1 1.5v-2.05c0-0.5 0.05-1 0.1-1.5m-40.05 2.05v2c0-4.15-3.3-8.4-3.45-8.65v-2c0.15 0.25 3.45 4.45 3.45 8.65z"/>
   <path id="path4586" transform="translate(-80,-32)" d="m399.6 108.8v2c0-4.15-3.3-8.4-3.45-8.65v-2c0.15 0.25 3.45 4.45 3.45 8.65m-3.65 13.9v-2c0 0.7 0.05 1.45 0.2 2.35 2.1 13.55 18.9 7.85 24.35 14.65v2.05c-5.45-6.85-22.25-1.15-24.35-14.7-0.15-0.85-0.2-1.65-0.2-2.35z"/>
   <path id="path4588" transform="translate(-80,-32)" d="m420.5 137.7v2.05c-5.45-6.85-22.25-1.15-24.35-14.7-0.15-0.85-0.2-1.65-0.2-2.35v-2c0 0.7 0.05 1.45 0.2 2.35 2.1 13.55 18.9 7.85 24.35 14.65"/>
  </g>
  <path id="path4590" class="fill-586e75" transform="translate(-80,-32)" d="m420.35 90c0.3 0 0.55 0.1 0.6 0.2 2.5 2.9 5 3.9 7.25 3.9 4.5 0 7.75-3.75 7.95-3.95l6.85 9.2c-0.2 0.25-3.65 4.4-3.45 9.3 0.25 5.75 5.45 7.85 4.15 14.4-2.3 11.75-13.4 7-22.4 14.65-0.2 0.15-0.35 0.2-0.45 0.2-0.2 0-0.3-0.2-0.35-0.2-5.45-6.8-22.25-1.1-24.35-14.65-1.15-7.45 3.2-8.35 3.4-13.9 0.2-4.3-3.2-8.75-3.4-9l8-10c0.15 0.2 3.5 3.65 8.15 3.65 2.35 0 5-0.9 7.6-3.65 0.15-0.1 0.3-0.15 0.45-0.15z"/>
  <g class="fill-39474b">
   <path id="path4592" transform="translate(-80,-32)" d="m443.9 121.05v2c0 0.65-0.05 1.3-0.2 2-2.3 11.8-13.4 7-22.4 14.7-0.2 0.15-0.35 0.2-0.45 0.2-0.2 0-0.3-0.2-0.35-0.2v-2.05c0.05 0 0.15 0.2 0.35 0.2 0.1 0 0.25-0.05 0.45-0.2 9-7.65 20.1-2.9 22.4-14.65 0.15-0.75 0.2-1.4 0.2-2z"/>
   <path id="path4594" transform="translate(-80,-32)" d="m443.9 121.05v2c0 0.45 0 0.9-0.1 1.4v-2.05c0.1-0.45 0.1-0.9 0.1-1.35"/>
   <path id="path4596" transform="translate(-80,-32)" d="m443.8 122.4v2.05c0 0.2-0.05 0.4-0.1 0.6-0.1 0.6-0.25 1.15-0.4 1.65v-2.05c0.15-0.5 0.3-1.05 0.4-1.6 0.05-0.2 0.1-0.45 0.1-0.65m-0.5 2.25v2.05c-0.25 0.75-0.5 1.45-0.85 2.05v-2c0.35-0.65 0.6-1.3 0.85-2.1m-0.85 2.1v2c-3.8 7.1-13.3 4.3-21.15 11-0.2 0.15-0.35 0.2-0.45 0.2-0.2 0-0.3-0.2-0.35-0.2v-2.05c0.05 0 0.15 0.2 0.35 0.2 0.1 0 0.25-0.05 0.45-0.2 7.85-6.7 17.35-3.9 21.15-10.95"/>
  </g>
  <use id="use4598" xlink:href="#a" transform="translate(321.69 84)" height="100%" width="100%" y="0" x="0"/>
 </g>
 <g id="layer8">
  <g class="fill-39474b">
   <path id="path4778" transform="translate(-80,-32)" d="m413.84 191.8h11.92v2.24h-11.92v-2.24zm26.32 6.92v2.2c-3.52-1.44-8.32-2.84-14.4-3.32v-2.24c6.08 0.48 10.88 1.88 14.4 3.36z"/>
   <path id="path4780" transform="translate(-80,-32)" d="m440.16 198.72v2.2c-3.52-1.44-8.32-2.84-14.4-3.32v-2.24c6.08 0.48 10.88 1.88 14.4 3.36m-26.32-3v2.24c-5.76 0.88-10.48 2.6-13.84 4.24v-2.24c3.36-1.6 8.08-3.36 13.84-4.24z"/>
   <path id="path4782" transform="translate(-80,-32)" d="m413.84 195.72v2.24c-5.76 0.88-10.48 2.6-13.84 4.24v-2.24c3.36-1.6 8.08-3.36 13.84-4.24"/>
  </g>
  <path id="path4784" class="fill-586e75" transform="translate(-80,-32)" d="m440.16 180v19.96-1.24c-3.52-1.48-8.32-2.88-14.4-3.36v-3.56h-11.92v3.92c-5.76 0.88-10.48 2.64-13.84 4.24v-19.96h40.16z"/>
  <path id="path4786" class="fill-586e75" transform="translate(-80,-32)" d="m425.76 199.16c6.04 0.48 10.84 1.88 14.4 3.36v15.12h-40.16v-14.04c3.32-1.6 8-3.32 13.84-4.16v4.4h11.92v-4.68z"/>
  <path id="path4788" class="fill-39474b" transform="translate(-80,-32)" d="m400 217.64h40.16v2.24h-40.16v-2.24z"/>
 </g>
 <g id="layer14">
  <path id="path4754" d="m610 302h80v30h-80z" stroke-opacity="0" transform="translate(-80,-32)" class="fill-586e75"/>
  <use id="use4756" xlink:href="#g" transform="translate(557.5,289.4)" height="100%" width="100%" y="0" x="0"/>
 </g>
 <g id="layer20">
  <path id="path4830" d="m565 460v60" transform="translate(-80,-32)"  stroke-width="2"  class="stroke-586e75 fill-none"/>
  <g class="fill-586e75">
   <path id="path4832" transform="translate(-80,-32)" d="m569.64 474.27h-9.28l4.64-14.27z"/>
   <path id="path4834" transform="translate(-80,-32)" d="m571 475.27h-12l6-18.5zm-9.26-2h6.52l-3.26-10.03zm3.26 46.73l-4.64-14.27h9.28z"/>
   <path id="path4836" transform="translate(-80,-32)" d="m564.08 520.4-5.1-15.67h12.03l-5.07 15.65-0.93-0.38 0.92 0.4-0.92 2.84v-3.24zm-2.34-13.67 3.26 10.03 3.26-10.03z"/>
  </g>
 </g>
 <g id="layer21">
  <g stroke-opacity="0">
   <path id="path4662" d="m546.16 532.36-7.32-1.5v38.28l7.32-1.38zm14.28 37.86-11.46 3.12v-46.74l11.46 3.06z" transform="translate(-80,-32)" class="fill-586e75"/>
   <path id="path4664" d="m568.72 535.24 5.22-2.22 17.46 5.58-4.68 0.48z" transform="translate(-80,-32)" class="fill-273134"/>
   <path id="path4666" d="m568.9 564.76 5.16 2.22 17.4-5.58-4.62-0.48z" transform="translate(-80,-32)" class="fill-93a1a6"/>
   <path id="path4668" d="m570.22 558.58 9.18 1.02v-19.2l-9.18 1.02z" transform="translate(-80,-32)" class="fill-39474b"/>
  </g>
  <g stroke-opacity="0" class="fill-586e75">
   <path id="path4670" d="m573.94 576.28-8.94 3.72v-60l8.94 3.78z" transform="translate(-80,-32)"/>
   <path id="path4672" d="m595 560.56-30 7.44v12l30-12.42z" transform="translate(-80,-32)"/>
   <path id="path4674" d="m591.16 530.86 3.84 1.56v35.16l-3.84 1.56z" transform="translate(-80,-32)"/>
   <path id="path4676" d="m565 532 30 7.44v-7.02l-30-12.42z" transform="translate(-80,-32)"/>
  </g>
  <path id="path4678" d="m556.06 576.28 8.94 3.72v-60l-8.94 3.78zm-12.72-47.34 5.64-2.34v46.8l-5.64-2.34zm-8.34 38.64 3.84 1.56v-38.28l-3.84 1.56zm51.54-28.5 4.62-0.48v22.92l-4.62-0.54z" stroke-opacity="0" transform="translate(-80,-32)" class="fill-39474b"/>
  <path id="path4680" d="m579.4 540.4v19.26l9.54-9.66z" stroke-opacity="0" transform="translate(-80,-32)" class="fill-586e75"/>
  <use id="use4682" xlink:href="#c" transform="translate(450.58 562.4)" height="100%" width="100%" y="0" x="0"/>
 </g>
</svg>
